<svg width="27" height="30" viewBox="0 0 27 30" fill="none" xmlns="http://www.w3.org/2000/svg">
<path d="M16.2077 30H0.974148C0.368182 29.7885 0 29.334 0 28.6446V2.43667C0.00767045 1.23009 1.00483 0 2.23977 0H14.9267C16.177 0 17.1741 1.21442 17.1741 2.42883L17.1895 19.3758C17.1895 19.8224 17.5884 20.034 17.9872 19.9948C20.1043 19.7989 22.0679 21.3737 22.0832 23.544V25.0562C22.0986 25.7456 22.6585 26.2392 23.3105 26.2392C23.9165 26.2392 24.5378 25.7691 24.5378 25.0562V13.053C24.5378 12.7239 24.231 12.4889 23.9625 12.4106C22.881 12.0972 22.0909 11.157 22.0909 9.98955V6.87908C22.0909 6.45599 21.9222 6.08775 21.5923 5.83703L20.1503 4.73231C19.5903 4.30922 19.4753 3.52572 19.8818 2.96944C20.2884 2.41316 21.0554 2.2878 21.6153 2.71873L25.5273 5.71167C26.4554 6.41682 27 7.49804 27 8.70462V25.0013C27 27.1246 25.2358 28.8169 23.1724 28.7307C21.2778 28.6524 19.6594 27.1011 19.644 25.1815V23.6615C19.6287 23.0034 19.0994 22.4785 18.4551 22.4785H17.8185C17.458 22.4785 17.1895 22.7448 17.1895 23.1209V28.6837C17.1895 29.3419 16.783 29.7806 16.2077 29.9765V30ZM14.1597 12.4811C14.5048 12.4262 14.7273 12.199 14.7273 11.8699V3.08697C14.7273 2.75007 14.4665 2.47584 14.129 2.47584H3.10653C2.71534 2.47584 2.46222 2.7579 2.46222 3.14181V11.8073C2.46222 12.1912 2.71534 12.4732 3.10653 12.4732H14.1673L14.1597 12.4811Z" fill="white"/>
</svg>
