<svg width="24" height="24" viewBox="0 0 24 24" fill="none" xmlns="http://www.w3.org/2000/svg">
<path d="M24 5.82073V6.85365C23.9188 6.87243 23.9688 6.96633 23.9625 7.02893C23.7501 8.91321 22.7003 10.5847 21.232 11.5612C19.5012 12.7193 17.4267 12.9572 15.496 12.2686L5.91096 22.8669C5.33611 23.5055 4.6113 23.8498 3.79901 24H2.99922C1.42463 23.7746 0.262432 22.6165 0 21.0452V20.2001C0.156209 19.3988 0.474876 18.6915 1.08722 18.1343L11.7344 8.50005C10.9097 6.2339 11.4408 3.73613 13.0404 2.01461C14.6274 0.311867 17.0518 -0.395522 19.3262 0.217966C19.5824 0.299347 19.7511 0.499669 19.8011 0.706252C19.8511 0.912834 19.8011 1.20706 19.6199 1.3886L17.1143 3.89889L17.6079 6.38414L20.0885 6.87869L22.6254 4.35588C22.8128 4.17433 23.0627 4.13051 23.3189 4.20564C23.9438 4.38718 23.8625 5.36375 23.9938 5.81448L24 5.82073ZM3.28664 19.8558C2.87425 19.9748 2.69305 20.3942 2.81177 20.751C2.93049 21.1078 3.31164 21.3019 3.6553 21.208C4.0427 21.1016 4.25514 20.7135 4.15517 20.3441C4.05519 19.9748 3.68654 19.7431 3.28664 19.8558Z" fill="#00ACAD"/>
</svg>
