<svg width="14" height="14" viewBox="0 0 14 14" fill="none" xmlns="http://www.w3.org/2000/svg">
<path d="M10.535 11.1918L10.985 10.7448C13.067 10.8128 13.099 10.7398 13.1905 10.5258L13.7625 9.13329L13.805 9.00129L13.7585 8.88579C13.734 8.82479 13.6585 8.64279 12.3585 7.40329V6.75129C13.8585 5.30629 13.8265 5.23229 13.741 5.02079L13.1715 3.61379C13.086 3.40279 13.0535 3.32029 10.9865 3.37679L10.5365 2.91179C10.5835 2.22685 10.5599 1.53889 10.466 0.85879L10.408 0.72729L8.921 0.0772896C8.702 -0.0227104 8.625 -0.0587103 7.221 1.47029L6.59 1.46079C5.1445 -0.0822103 5.076 -0.0542104 4.8595 0.0332896L3.477 0.59229C3.2605 0.67979 3.184 0.71079 3.268 2.81079L2.8215 3.25579C0.7405 3.18779 0.7085 3.26179 0.618 3.47479L0.0450001 4.86779L0 5.00129L0.0470001 5.11729C0.0715 5.17729 0.144 5.35729 1.447 6.59829V7.24829C-0.0529999 8.69329 -0.0205 8.76729 0.0655 8.97929L0.6345 10.3878C0.7215 10.6033 0.7525 10.6798 2.819 10.6258L3.269 11.0933C3.22221 11.7772 3.24516 12.4641 3.3375 13.1433L3.3955 13.2758L4.892 13.9298C5.1095 14.0208 5.185 14.0533 6.585 12.5298L7.216 12.5378C8.6635 14.0828 8.7375 14.0528 8.949 13.9673L10.3285 13.4098C10.5465 13.3233 10.6225 13.2928 10.535 11.1918ZM4.606 7.92979C4.43153 7.47382 4.39561 6.97647 4.50274 6.50016C4.60988 6.02384 4.8553 5.58978 5.20821 5.25243C5.56113 4.91508 6.00581 4.68947 6.48647 4.60391C6.96712 4.51835 7.46235 4.57665 7.90999 4.77149C8.35764 4.96634 8.73777 5.28905 9.00269 5.69914C9.26762 6.10922 9.40552 6.58841 9.39911 7.07658C9.39271 7.56475 9.24227 8.04016 8.96667 8.44315C8.69108 8.84614 8.30261 9.15876 7.85 9.34179C7.23246 9.58327 6.54441 9.57028 5.93643 9.30565C5.32846 9.04102 4.85008 8.54631 4.606 7.92979Z" fill="#FF8126"/>
</svg>
