<svg width="25" height="24" viewBox="0 0 25 24" fill="none" xmlns="http://www.w3.org/2000/svg">
<path d="M24.0336 8.30931V23.1989C23.9022 23.5995 23.6331 23.8686 23.2325 23.9938H21.0294V12.0082C21.0294 11.4512 20.5976 11.0068 20.0343 11.0068H3.99934C3.43606 11.0068 3.0042 11.4512 3.0042 12.0082V23.9938H0.80112C0.40056 23.8624 0.131434 23.5932 0 23.1989V8.30305L0.231574 7.95882L11.6037 0.129098C11.8541 -0.039889 12.1795 -0.0461478 12.4299 0.129098L23.5267 7.75228C23.7645 7.91501 23.921 8.05896 24.0336 8.30305V8.30931Z" fill="#00ACAD"/>
<path d="M18.1626 23.9937H12.8739C12.7112 23.8811 12.5234 23.7622 12.5234 23.5243V19.4999C12.5234 19.2183 12.7425 19.0055 13.0116 19.0055H14.7641L14.7766 19.7878C14.7828 20.2072 15.1521 20.5139 15.5589 20.5013C15.9658 20.4888 16.2537 20.1821 16.2724 19.7753C16.2912 19.3685 16.2599 19.2684 16.2849 19.0055H18.0186C18.3003 19.0055 18.5193 19.2246 18.5193 19.5062V23.4367C18.5193 23.7183 18.3816 23.8873 18.1563 24L18.1626 23.9937Z" fill="#00ACAD"/>
<path d="M11.1657 23.9938H5.87708C5.65176 23.8811 5.50781 23.7121 5.50781 23.4305V19.5C5.50781 19.2121 5.73313 18.9993 6.01477 18.9993H7.7547C7.786 19.2621 7.7547 19.5125 7.76722 19.7754C7.786 20.1947 8.14275 20.5014 8.53079 20.4951C8.91883 20.4889 9.26932 20.1571 9.26932 19.7378C9.26932 19.3185 9.25681 19.2559 9.27558 19.0055H10.9842C11.2721 19.0055 11.5162 19.1995 11.5162 19.5V23.3867C11.5225 23.6808 11.4098 23.8686 11.1657 24V23.9938Z" fill="#00ACAD"/>
<path d="M15.0139 13.4792V17.4786C15.0139 17.779 14.7948 17.9981 14.5006 17.9981H9.5312C9.23078 17.9981 9.01172 17.779 9.01172 17.4786V13.498C9.01172 13.2289 9.22452 13.0036 9.48738 13.0036H11.2524C11.2774 13.2539 11.2586 13.4792 11.2586 13.7358C11.2586 14.1552 11.5903 14.4806 11.9846 14.4932C12.3789 14.5057 12.7357 14.199 12.7545 13.7797C12.7732 13.3603 12.7419 13.2602 12.767 12.9973H14.4944C14.7447 12.9973 15.0076 13.1726 15.0076 13.473L15.0139 13.4792Z" fill="#00ACAD"/>
</svg>
