<svg width="33" height="20" viewBox="0 0 33 20" fill="none" xmlns="http://www.w3.org/2000/svg">
<path d="M0 13.5039V13.1283C0.183611 12.8362 0.433989 12.6526 0.817901 12.6609C1.20181 12.6693 1.8528 12.6776 2.37024 12.6609C2.73747 12.6526 2.98784 12.3521 3.00454 12.0266C3.02123 11.7011 2.75416 11.3422 2.37024 11.3422L0.625945 11.3255C0.3088 11.3255 0.158573 11.0835 0 10.8749V10.4993C0.358875 9.8483 0.625945 10.0486 1.33535 9.99018V2.06981C1.33535 0.90137 2.21167 0 3.38845 0H18.6448C19.7882 0 20.6979 0.85964 20.6979 2.01139V13.2952C20.6979 13.6875 20.4308 13.9963 20.0219 13.9963H0.75948C0.358875 13.9963 0.150227 13.8127 0 13.4955V13.5039Z" fill="#00ACAD"/>
<path d="M32.0483 12.1268V15.6905C31.7896 16.6503 31.0301 17.343 29.9785 17.3347H28.3511C28.2175 15.8741 27.2411 14.6974 25.9892 14.2383C24.7373 13.7793 23.1015 14.0797 22.0332 15.1397V4.69882C22.0332 4.28987 22.3253 4.0061 22.7176 4.0061H26.7236C27.8169 4.0061 28.7517 4.62371 29.2024 5.60854L31.6561 11.0084C31.8063 11.3423 32.0483 11.7762 32.0483 12.1184V12.1268ZM29.3192 9.75651L28.2843 7.4697C28.059 6.97729 27.5916 6.67683 27.0491 6.67683H24.3534C24.0028 6.67683 23.7107 6.96894 23.7107 7.31947V10.0152C23.7107 10.3741 24.0028 10.6746 24.3617 10.6746H28.7183C28.9436 10.6746 29.1439 10.541 29.2357 10.4075C29.3275 10.274 29.4277 9.98185 29.3192 9.75651Z" fill="#00ACAD"/>
<path d="M20.697 16.6499C20.6803 17.0422 20.4132 17.3176 20.021 17.3343H10.999C10.9155 16.5999 10.6652 15.9739 10.1895 15.3396H20.0126C20.4049 15.3396 20.6803 15.6401 20.6886 15.9989C20.697 16.3578 20.6886 16.4079 20.6886 16.6499H20.697Z" fill="#00ACAD"/>
<path d="M7.13477 15.3482C8.46177 15.223 9.54674 16.2078 9.67193 17.443C9.79712 18.7283 8.84568 19.8633 7.59379 19.9885C6.3419 20.1137 5.18182 19.1957 5.03159 17.9521C4.87302 16.6668 5.78272 15.4733 7.13477 15.3482Z" fill="#00ACAD"/>
<path d="M24.4705 15.3481C25.7975 15.2146 26.8908 16.1828 27.0244 17.418C27.1663 18.7116 26.2148 19.855 24.9379 19.9802C23.6777 20.1054 22.5343 19.1957 22.384 17.9271C22.2422 16.6752 23.1268 15.4817 24.4705 15.3481Z" fill="#00ACAD"/>
<path d="M4.47347 15.3479C4.06452 15.9489 3.75572 16.5665 3.6973 17.3176C2.45376 17.5012 1.3521 16.5915 1.34375 15.3396H4.47347V15.3479Z" fill="#00ACAD"/>
</svg>
