<svg width="36" height="22" viewBox="0 0 36 22" fill="none" xmlns="http://www.w3.org/2000/svg">
<path d="M0 14.8543V14.4411C0.201973 14.1198 0.47739 13.9178 0.899697 13.927C1.322 13.9362 2.03809 13.9454 2.60728 13.927C3.01123 13.9178 3.28665 13.5873 3.30501 13.2293C3.32337 12.8713 3.02959 12.4765 2.60728 12.4765L0.688543 12.4581C0.339681 12.4581 0.174431 12.1919 0 11.9624V11.5492C0.394765 10.8332 0.688543 11.0535 1.46889 10.9892V2.2768C1.46889 0.991509 2.43285 0 3.72732 0H20.5094C21.7672 0 22.7678 0.945605 22.7678 2.21253V14.6248C22.7678 15.0562 22.4741 15.3959 22.0242 15.3959H0.835433C0.394765 15.3959 0.16525 15.194 0 14.8451V14.8543Z" fill="white"/>
<path d="M35.253 13.3393V17.2594C34.9684 18.3152 34.133 19.0771 32.9762 19.068H31.186C31.0391 17.4614 29.965 16.1669 28.5879 15.662C27.2108 15.157 25.4114 15.4875 24.2363 16.6535V5.16849C24.2363 4.71864 24.5576 4.40649 24.9891 4.40649H29.3958C30.5985 4.40649 31.6267 5.08586 32.1224 6.16918L34.8215 12.109C34.9868 12.4763 35.253 12.9537 35.253 13.3301V13.3393ZM32.251 10.732L31.1126 8.21646C30.8647 7.6748 30.3506 7.3443 29.7539 7.3443H26.7885C26.4029 7.3443 26.0816 7.66562 26.0816 8.05121V11.0166C26.0816 11.4113 26.4029 11.7418 26.7977 11.7418H31.59C31.8378 11.7418 32.0582 11.5949 32.1592 11.448C32.2602 11.3012 32.3703 10.9798 32.251 10.732Z" fill="white"/>
<path d="M22.7673 18.3153C22.749 18.7468 22.4552 19.0497 22.0237 19.0681H12.0995C12.0077 18.2602 11.7323 17.5716 11.209 16.8739H22.0145C22.446 16.8739 22.749 17.2044 22.7582 17.5992C22.7673 17.9939 22.7582 18.049 22.7582 18.3153H22.7673Z" fill="white"/>
<path d="M7.84884 16.883C9.30855 16.7453 10.502 17.8286 10.6397 19.1874C10.7774 20.6012 9.73086 21.8498 8.35377 21.9875C6.97669 22.1252 5.70059 21.1153 5.53534 19.7474C5.3609 18.3336 6.36159 17.0207 7.84884 16.883Z" fill="white"/>
<path d="M26.917 16.8831C28.3767 16.7362 29.5794 17.8011 29.7263 19.1599C29.8823 20.5829 28.8357 21.8406 27.4311 21.9783C26.0448 22.116 24.7871 21.1153 24.6219 19.7199C24.4658 18.3428 25.4389 17.03 26.917 16.8831Z" fill="white"/>
<path d="M4.92123 16.8831C4.47138 17.5441 4.1317 18.2235 4.06744 19.0497C2.69953 19.2517 1.4877 18.251 1.47852 16.8739H4.92123V16.8831Z" fill="white"/>
</svg>
