<svg width="100" height="100" viewBox="0 0 100 100" fill="none" xmlns="http://www.w3.org/2000/svg">
<rect x="100" y="100" width="100" height="100" rx="20" transform="rotate(-180 100 100)" fill="url(#paint0_linear_324_1116)"/>
<path d="M29.363 59.4376C29.363 59.4376 29.363 59.3938 29.363 59.3763C29.363 59.1132 29.1512 58.9028 28.8863 58.9028H21.6122C21.6122 58.9028 21.5327 58.9028 21.4974 58.9028H21.4798C19.8201 58.9028 18.2399 60.2355 17.931 61.8837V61.9188C17.931 61.9188 17.9133 61.9714 17.9133 61.989L16.5273 69.8182H20.2439C20.4822 69.8182 20.6853 69.6429 20.7206 69.4149L21.0649 67.4861L21.1531 67.0039C21.1884 66.7847 21.3915 66.6094 21.6298 66.6094H25.0462C25.2757 66.6094 25.47 66.4428 25.5141 66.2236L25.7613 64.926C25.7613 64.926 25.7613 64.8734 25.7613 64.8471C25.7613 64.5841 25.5494 64.3737 25.2846 64.3737H21.6298L21.93 62.5939C22.0801 61.7698 22.8657 61.0947 23.7044 61.0947H28.6656C28.904 61.0947 29.107 60.9193 29.1423 60.6914L29.363 59.4464V59.4376Z" fill="white"/>
<path d="M69.8061 61.6339C70.0443 61.6339 70.2383 61.467 70.2824 61.2387L70.5999 59.4473C70.5999 59.4473 70.5999 59.4034 70.5999 59.377C70.5999 59.1136 70.3882 58.9028 70.1236 58.9028H59.4967C58.8177 58.9028 58.2533 59.3946 58.1474 60.0444L57.8652 61.6339H61.8338C62.0983 61.6339 62.31 61.8446 62.31 62.1081C62.31 62.1344 62.31 62.1608 62.31 62.1783L60.9519 69.8182H64.6647C64.9028 69.8182 65.0968 69.6514 65.1409 69.4231L66.4461 62.029C66.4814 61.8007 66.6754 61.6251 66.9223 61.6251H69.815L69.8061 61.6339Z" fill="white"/>
<path d="M41.3312 61.0696H32.5285L32.3516 58.8667H41.3489L41.3312 61.0696Z" fill="white"/>
<path d="M39.6122 67.1123H30.3672L30.7299 65.0509H39.4264L39.6122 67.1123Z" fill="white"/>
<path d="M38.2281 69.881H41.3334L40.0948 66.3776L36.6445 66.3511L37.7769 69.5714C37.8477 69.7572 38.0247 69.881 38.2281 69.881Z" fill="white"/>
<path d="M36.5918 66.8465V67.1119C36.8041 67.1119 36.9811 67.2535 37.0518 67.4392H37.2288V66.8376H36.6006L36.5918 66.8465Z" fill="white"/>
<path d="M32.9423 69.8811C33.1811 69.8811 33.3846 69.7042 33.42 69.4742L35.2867 58.8666H32.3141C31.6329 58.8666 31.0667 59.362 30.9606 60.0167L29.2266 69.8723H32.9511L32.9423 69.8811Z" fill="white"/>
<path d="M43.0877 60.5919C43.0877 60.6715 43.0877 60.76 43.07 60.8396L42.1853 65.7497C42.026 66.5194 41.3448 67.1033 40.5309 67.121H37.7441L39.0269 60.0168C39.1331 59.3621 39.6993 58.8667 40.3805 58.8667H41.3891C42.3268 58.8844 43.0877 59.6452 43.0877 60.5919Z" fill="white"/>
<path d="M35.3029 61.0694V60.6359H34.3828V61.4586H34.834C34.8782 61.2375 35.0729 61.0694 35.3029 61.0694Z" fill="white"/>
<path d="M34.2287 67.1209V66.7051H33.3086V67.5279H33.7598C33.7952 67.2978 33.9986 67.1297 34.2375 67.1297L34.2287 67.1209Z" fill="white"/>
<path d="M38.9738 63.7589C38.9738 63.7589 37.9653 65.8379 37.9653 65.8822C37.9653 65.9264 36.709 65.4221 36.709 65.4221L36.7532 65.0594C37.5671 65.024 38.2395 64.4224 38.3722 63.635L38.9826 63.7677L38.9738 63.7589Z" fill="white"/>
<path d="M39.0184 60.9721L38.8503 61.4587H38.7618C38.7972 61.2464 38.6557 61.0695 38.4434 61.0695L38.4699 60.9191L39.0184 60.9721Z" fill="white"/>
<path d="M51.5763 58.4063C48.3551 58.4063 45.4076 60.1921 44.7987 62.4465C44.6486 62.9681 44.481 63.7726 44.3839 64.3472C44.2868 64.8954 44.1809 65.6733 44.1368 66.1773C44.128 66.2833 44.1191 66.3806 44.1191 66.4778C44.1191 66.5044 44.1191 66.5397 44.1191 66.5663C44.1456 68.688 46.4048 70.3235 49.4847 70.3235C52.7412 70.3235 55.724 68.4935 56.2888 66.1949C56.43 65.6822 56.5977 64.9042 56.6948 64.3384C56.8007 63.7284 56.9154 62.8974 56.9507 62.3492C57.0655 60.1302 54.7621 58.3975 51.5851 58.3975L51.5763 58.4063ZM52.953 62.2078C52.953 62.2078 52.7147 63.8875 52.6265 64.3561C52.5382 64.8688 52.0881 66.8668 52.0881 66.8668C51.744 67.8128 50.7909 68.52 49.7936 68.52C48.6817 68.52 47.9404 67.6271 48.108 66.522C48.108 66.522 48.3463 64.8246 48.4346 64.3561C48.5317 63.7991 48.7876 62.5261 48.9288 62.0133C49.2288 61.0055 50.2261 60.2186 51.2674 60.2186C52.3705 60.2186 53.1207 61.1027 52.953 62.2078Z" fill="white"/>
<path d="M81.4593 59.2538C81.4153 59.0695 81.2566 58.9292 81.0715 58.9028H75.0074C74.505 58.9028 74.0643 59.1836 73.8263 59.596C73.8263 59.6136 73.8087 59.6223 73.7999 59.6399L68.2734 69.8182H72.0811C72.231 69.8007 72.3632 69.7129 72.4425 69.5901L72.4689 69.5374L73.2887 68.037C73.368 67.8791 73.5266 67.7738 73.7117 67.7738H78.6212C78.8504 67.7738 79.0443 67.9317 79.0883 68.1511L79.3351 69.4585C79.388 69.6691 79.5731 69.8182 79.8023 69.8182H83.4337L81.4505 59.2626L81.4593 59.2538ZM76.9377 61.307C77.017 61.1491 77.1757 61.0438 77.3608 61.0438C77.5811 61.0438 77.7662 61.193 77.8191 61.3948L78.7181 66.2032H74.2758L76.9289 61.307H76.9377Z" fill="white"/>
<path d="M69.8061 61.6339C70.0443 61.6339 70.2383 61.467 70.2824 61.2387L70.5999 59.4473C70.5999 59.4473 70.5999 59.4034 70.5999 59.377C70.5999 59.1136 70.3882 58.9028 70.1236 58.9028H59.4967C58.8177 58.9028 58.2533 59.3946 58.1474 60.0444L57.8652 61.6339H61.8338C62.0983 61.6339 62.31 61.8446 62.31 62.1081C62.31 62.1344 62.31 62.1608 62.31 62.1783L60.9519 69.8182H64.6647C64.9028 69.8182 65.0968 69.6514 65.1409 69.4231L66.4461 62.029C66.4814 61.8007 66.6754 61.6251 66.9223 61.6251H69.815L69.8061 61.6339Z" fill="white"/>
<path d="M51.5763 58.4063C48.3551 58.4063 45.4076 60.1921 44.7987 62.4465C44.6486 62.9681 44.481 63.7726 44.3839 64.3472C44.2868 64.8954 44.1809 65.6733 44.1368 66.1773C44.128 66.2833 44.1191 66.3806 44.1191 66.4778C44.1191 66.5044 44.1191 66.5397 44.1191 66.5663C44.1456 68.688 46.4048 70.3235 49.4847 70.3235C52.7412 70.3235 55.724 68.4935 56.2888 66.1949C56.43 65.6822 56.5977 64.9042 56.6948 64.3384C56.8007 63.7284 56.9154 62.8974 56.9507 62.3492C57.0655 60.1302 54.7621 58.3975 51.5851 58.3975L51.5763 58.4063ZM52.953 62.2078C52.953 62.2078 52.7147 63.8875 52.6265 64.3561C52.5382 64.8688 52.0881 66.8668 52.0881 66.8668C51.744 67.8128 50.7909 68.52 49.7936 68.52C48.6817 68.52 47.9404 67.6271 48.108 66.522C48.108 66.522 48.3463 64.8246 48.4346 64.3561C48.5317 63.7991 48.7876 62.5261 48.9288 62.0133C49.2288 61.0055 50.2261 60.2186 51.2674 60.2186C52.3705 60.2186 53.1207 61.1027 52.953 62.2078Z" fill="white"/>
<path d="M81.4593 59.2538C81.4153 59.0695 81.2566 58.9292 81.0715 58.9028H75.0074C74.505 58.9028 74.0643 59.1836 73.8263 59.596C73.8263 59.6136 73.8087 59.6223 73.7999 59.6399L68.2734 69.8182H72.0811C72.231 69.8007 72.3632 69.7129 72.4425 69.5901L72.4689 69.5374L73.2887 68.037C73.368 67.8791 73.5266 67.7738 73.7117 67.7738H78.6212C78.8504 67.7738 79.0443 67.9317 79.0883 68.1511L79.3351 69.4585C79.388 69.6691 79.5731 69.8182 79.8023 69.8182H83.4337L81.4505 59.2626L81.4593 59.2538ZM76.9377 61.307C77.017 61.1491 77.1757 61.0438 77.3608 61.0438C77.5811 61.0438 77.7662 61.193 77.8191 61.3948L78.7181 66.2032H74.2758L76.9289 61.307H76.9377Z" fill="white"/>
<path d="M24.5566 51.8612H29.9632L29.0743 49.3618L27.0769 49.205L24.5566 51.8508V51.8612Z" fill="white"/>
<path d="M45.7537 51.8613H40.6504C40.6504 51.8613 42.1981 49.4247 42.3341 49.4247C42.47 49.4247 45.1158 49.477 45.189 49.5502C45.2622 49.6234 45.7537 51.8613 45.7537 51.8613Z" fill="white"/>
<path d="M57.2344 51.8616H62.9233V50.0628L60.2671 48.9438C60.2671 48.9438 57.9246 49.6236 57.956 49.7073C57.9769 49.7805 57.2448 51.8616 57.2448 51.8616H57.2344Z" fill="white"/>
<path d="M66.9349 49.9371C66.9349 49.8325 69.0682 49.4037 69.0891 49.3305C69.1101 49.2573 71.1493 49.7593 71.1493 49.7593L71.6303 51.8613H65.9414L66.9872 50.0626L66.9349 49.9371Z" fill="white"/>
<path d="M80.9299 29.5028V29.5133L80.6162 33.9787H78.692H42.7597H40.8564L40.7832 29.5028H80.9299Z" fill="white"/>
<path d="M77.8583 46.2557H37.5338L37.377 42.0621H79.3119L77.8583 46.2557Z" fill="white"/>
<path d="M76.8355 51.8611H80.7466L78.2368 44.7394L73.625 44.6871L75.9152 51.2337C76.0512 51.5997 76.4067 51.8611 76.825 51.8611H76.8355Z" fill="white"/>
<path d="M73.5469 45.7015V46.2558C73.9756 46.2558 74.2789 46.5382 74.4044 46.9251H74.76V45.712H73.5469V45.7015Z" fill="white"/>
<path d="M42.7368 29.5026L42.6009 30.2556L42.0989 33.1001L42.0153 33.5393L41.9421 33.9681L41.8061 34.7524L40.5094 42.0519L39.9133 45.388L39.7564 46.2455L39.6205 46.988L39.4845 47.741C39.4113 48.2116 39.0035 48.5567 38.5224 48.5567H34.7891L37.7695 31.8347C37.7695 31.8347 37.7799 31.772 37.7904 31.7406C38.0414 30.4543 39.1708 29.4922 40.5303 29.4922H42.7473L42.7368 29.5026Z" fill="white"/>
<path d="M84.1682 33.006C84.1682 33.1733 84.1577 33.3406 84.1368 33.508L82.3486 43.4847C82.3486 43.4847 82.3486 43.4847 82.3486 43.4951C82.0139 45.0638 80.644 46.2455 78.9812 46.2664H77.2871L79.8911 31.8347C80.1107 30.5066 78.8557 29.4922 80.2466 29.4922H80.7277C82.6414 29.5236 84.1787 31.0818 84.1787 32.9955L84.1682 33.006Z" fill="white"/>
<path d="M42.7625 33.9785V33.1001H40.8906V34.7629H41.8109C41.8946 34.3132 42.2919 33.9785 42.773 33.9785H42.7625Z" fill="white"/>
<path d="M40.5575 46.2561V45.4091H38.6855V47.0718H39.5954C39.679 46.6117 40.0764 46.2561 40.5575 46.2561Z" fill="white"/>
<path d="M79.7798 39.4275C79.7798 39.4275 77.7405 43.6628 77.7196 43.7465C77.6987 43.8302 75.168 42.8053 75.168 42.8053L75.2516 42.0628C76.9039 41.9896 78.2634 40.7661 78.5458 39.166L79.7798 39.4275Z" fill="white"/>
<path d="M79.8685 33.78L79.5234 34.763H79.3456C79.4188 34.3238 79.126 33.9787 78.6973 33.9787L78.7496 33.6754L79.8685 33.7695V33.78Z" fill="white"/>
<path d="M31.5922 51.0771C31.5713 51.3071 31.5608 51.4013 31.5294 51.5477C31.5294 51.5477 31.5294 51.5581 31.5294 51.5686C31.4876 51.7255 31.3517 51.851 31.1843 51.8614H29.1974C29.1974 51.8614 29.1974 51.8614 29.1974 51.851C29.2811 51.5686 29.2915 51.5268 29.3647 51.1607C29.4797 50.4601 28.9987 50.0208 27.9948 50.0208C26.9908 50.0208 26.3843 50.3973 26.1856 51.0352C26.1229 51.2653 26.1019 51.3071 26.0392 51.5477C26.0392 51.5581 26.0392 51.579 26.0287 51.5895C25.9765 51.7359 25.851 51.8405 25.6941 51.851H25.6418C25.6418 51.851 25.6418 51.851 25.6314 51.851H23.6758C23.6758 51.851 23.6758 51.851 23.6758 51.8405C23.7072 51.6523 23.7281 51.5581 23.749 51.4745C23.7699 51.3804 23.8013 51.2967 23.8431 51.1294C24.2509 49.6862 26.1333 48.5568 28.183 48.5568C30.2327 48.5568 31.6654 49.6653 31.5817 51.0771H31.5922Z" fill="white"/>
<path d="M47.7094 51.0771C47.6885 51.3071 47.678 51.4013 47.6466 51.5477C47.6466 51.5477 47.6466 51.5581 47.6466 51.5686C47.6048 51.7255 47.4688 51.851 47.3015 51.8614H45.3146C45.3146 51.8614 45.3146 51.8614 45.3146 51.851C45.3982 51.5686 45.4087 51.5268 45.4819 51.1607C45.5969 50.4601 45.1159 50.0208 44.112 50.0208C43.108 50.0208 42.5015 50.3973 42.3028 51.0352C42.24 51.2653 42.2191 51.3071 42.1564 51.5477C42.1564 51.5581 42.1564 51.579 42.1459 51.5895C42.0936 51.7359 41.9681 51.8405 41.8113 51.851H41.759H41.7485H39.793C39.793 51.851 39.793 51.851 39.793 51.8405C39.8243 51.6523 39.8453 51.5581 39.8662 51.4745C39.8871 51.3804 39.9185 51.2967 39.9603 51.1294C40.3681 49.6862 42.2505 48.5568 44.3107 48.5568C46.3708 48.5568 47.793 49.6653 47.7094 51.0771Z" fill="white"/>
<path d="M72.9301 51.0771C72.9092 51.3071 72.8987 51.4013 72.8673 51.5477C72.8673 51.5477 72.8673 51.5581 72.8673 51.5686C72.8255 51.7255 72.6895 51.851 72.5222 51.8614H70.5353C70.5353 51.8614 70.5353 51.8614 70.5353 51.851C70.6189 51.5686 70.6294 51.5268 70.7026 51.1607C70.8176 50.4601 70.3366 50.0208 69.3327 50.0208C68.3287 50.0208 67.7222 50.3973 67.5235 51.0352C67.4607 51.2653 67.4398 51.3071 67.3771 51.5477C67.3771 51.5581 67.3771 51.579 67.3666 51.5895C67.3143 51.7359 67.1889 51.8405 67.032 51.851H66.9797C66.9797 51.851 66.9797 51.851 66.9692 51.851H65.0137C65.0137 51.851 65.0137 51.851 65.0137 51.8405C65.045 51.6523 65.066 51.5581 65.0869 51.4745C65.1078 51.3804 65.1392 51.2967 65.181 51.1294C65.5888 49.6862 67.4712 48.5568 69.5209 48.5568C71.5706 48.5568 73.0033 49.6653 72.9196 51.0771H72.9301Z" fill="white"/>
<path d="M64.2094 51.0771C64.1885 51.3071 64.178 51.4013 64.1466 51.5477C64.1466 51.5477 64.1466 51.5581 64.1466 51.5686C64.1048 51.7255 63.9688 51.851 63.8015 51.8614H61.8146C61.8146 51.8614 61.8146 51.8614 61.8146 51.851C61.8982 51.5686 61.9087 51.5268 61.9819 51.1607C62.0969 50.4601 61.6159 50.0208 60.612 50.0208C59.608 50.0208 59.0015 50.3973 58.8028 51.0352C58.74 51.2653 58.7191 51.3071 58.6564 51.5477C58.6564 51.5581 58.6564 51.579 58.6459 51.5895C58.6041 51.7359 58.4681 51.8405 58.3113 51.851H58.259H58.2485H56.293C56.293 51.851 56.293 51.851 56.293 51.8405C56.3243 51.6523 56.3453 51.5581 56.3662 51.4745C56.3871 51.3804 56.4185 51.2967 56.4603 51.1294C56.8681 49.6862 58.7505 48.5568 60.8002 48.5568C62.8499 48.5568 64.2826 49.6653 64.1989 51.0771H64.2094Z" fill="white"/>
<path d="M41.661 29.5029H40.5212C39.1617 29.5029 38.0323 30.465 37.7813 31.7513C37.4675 32.9331 36.4636 33.8324 35.2192 33.9788H26.5916C24.8975 33.9788 23.287 35.3488 22.9838 37.0534L22.3668 40.6927H29.8021C30.3355 40.6927 30.7642 41.1319 30.7642 41.6757C30.7642 41.7385 30.7642 41.7908 30.7433 41.8431L30.2518 44.4993C30.1681 44.949 29.7707 45.2837 29.3002 45.2941H22.3459C21.8648 45.2941 21.4674 45.6497 21.3838 46.1098L21.206 47.1033L20.5053 51.0668C20.4321 51.5269 20.0243 51.8825 19.5432 51.8825H15.8203L18.6439 35.8403C18.6439 35.8403 18.6543 35.7462 18.6648 35.6939V35.6207C19.2922 32.2429 22.5132 29.5134 25.891 29.5134H25.9224C25.9956 29.5134 26.0792 29.5134 26.1524 29.5134H41.6192H41.6401L41.661 29.5029Z" fill="white"/>
<path d="M41.483 29.5028H40.3431C38.9836 29.5028 37.8542 30.4649 37.6032 31.7512C37.2895 32.9329 36.2855 33.8323 35.0411 33.9787H26.4136C26.0789 33.9787 25.7443 34.031 25.4201 34.1356C25.3155 32.661 25.2214 30.9564 25.2109 29.5342C25.3783 29.5237 25.556 29.5133 25.7338 29.5133H25.7652C25.8384 29.5133 25.9221 29.5133 25.9953 29.5133H41.462H41.483V29.5028Z" fill="white"/>
<defs>
<linearGradient id="paint0_linear_324_1116" x1="150" y1="100" x2="150" y2="200" gradientUnits="userSpaceOnUse">
<stop stop-color="#028780"/>
<stop offset="1" stop-color="#00526E"/>
</linearGradient>
</defs>
</svg>
