<svg width="156" height="24" viewBox="0 0 156 24" fill="none" xmlns="http://www.w3.org/2000/svg">
<path d="M88.9147 10.4684C88.9147 10.4684 88.9147 10.4137 88.9147 10.3918C88.9147 10.0637 88.6522 9.80115 88.324 9.80115H79.3105C79.3105 9.80115 79.212 9.80115 79.1683 9.80115H79.1464C77.0899 9.80115 75.1319 11.4639 74.749 13.5204V13.5641C74.749 13.5641 74.7271 13.6298 74.7271 13.6516L73.0098 23.4201H77.615C77.9103 23.4201 78.1619 23.2013 78.2057 22.9169L78.6323 20.5104L78.7417 19.9087C78.7854 19.6352 79.037 19.4165 79.3324 19.4165H83.5656C83.8501 19.4165 84.0907 19.2086 84.1454 18.9351L84.4517 17.3162C84.4517 17.3162 84.4517 17.2506 84.4517 17.2177C84.4517 16.8896 84.1892 16.627 83.861 16.627H79.3324L79.7043 14.4064C79.8902 13.3782 80.8638 12.5359 81.903 12.5359H88.0505C88.3459 12.5359 88.5975 12.3171 88.6412 12.0327L88.9147 10.4794V10.4684Z" fill="#414F56"/>
<path d="M138.895 13.2032C139.19 13.2032 139.431 12.9953 139.486 12.7109L139.88 10.4794C139.88 10.4794 139.88 10.4247 139.88 10.3918C139.88 10.0637 139.617 9.80115 139.289 9.80115H126.108C125.265 9.80115 124.565 10.4137 124.434 11.2232L124.084 13.2032H129.006C129.335 13.2032 129.597 13.4657 129.597 13.7939C129.597 13.8267 129.597 13.8595 129.597 13.8814L127.913 23.3982H132.518C132.813 23.3982 133.054 23.1904 133.108 22.906L134.727 13.6954C134.771 13.411 135.012 13.1922 135.318 13.1922H138.906L138.895 13.2032Z" fill="#414F56"/>
<path d="M103.677 12.5475H92.793L92.5742 9.82373H103.699L103.677 12.5475Z" fill="#414F56"/>
<path d="M101.552 20.019H90.1211L90.5696 17.4702H101.322L101.552 20.019Z" fill="#414F56"/>
<path d="M99.8408 23.4423H103.68L102.149 19.1105L97.8828 19.0776L99.283 23.0594C99.3705 23.2891 99.5893 23.4423 99.8408 23.4423Z" fill="#414F56"/>
<path d="M97.8164 19.6905V20.0187C98.0789 20.0187 98.2977 20.1937 98.3852 20.4234H98.604V19.6796H97.8273L97.8164 19.6905Z" fill="#414F56"/>
<path d="M93.3052 23.4424C93.6006 23.4424 93.8521 23.2237 93.8959 22.9393L96.204 9.82349H92.5286C91.6863 9.82349 90.9862 10.4361 90.8549 11.2455L88.7109 23.4315H93.3161L93.3052 23.4424Z" fill="#414F56"/>
<path d="M105.851 11.9568C105.851 12.0553 105.851 12.1647 105.829 12.2631L104.735 18.3342C104.538 19.2859 103.696 20.0079 102.69 20.0297H99.2441L100.83 11.2458C100.962 10.4363 101.662 9.82373 102.504 9.82373H103.751C104.91 9.84561 105.851 10.7864 105.851 11.9568Z" fill="#414F56"/>
<path d="M96.2236 12.5472V12.0112H95.0859V13.0286H95.6438C95.6985 12.7551 95.9392 12.5472 96.2236 12.5472Z" fill="#414F56"/>
<path d="M94.8954 20.0296V19.5155H93.7578V20.5328H94.3157C94.3594 20.2484 94.611 20.0406 94.9064 20.0406L94.8954 20.0296Z" fill="#414F56"/>
<path d="M100.763 15.8726C100.763 15.8726 99.5162 18.4433 99.5162 18.498C99.5162 18.5527 97.9629 17.9291 97.9629 17.9291L98.0176 17.4806C99.024 17.4369 99.8553 16.693 100.019 15.7195L100.774 15.8836L100.763 15.8726Z" fill="#414F56"/>
<path d="M100.818 12.4268L100.611 13.0285H100.501C100.545 12.7659 100.37 12.5472 100.107 12.5472L100.14 12.3612L100.818 12.4268Z" fill="#414F56"/>
<path d="M116.378 9.25435C112.385 9.25435 108.732 11.464 107.977 14.2534C107.791 14.8988 107.583 15.8943 107.463 16.6053C107.343 17.2835 107.211 18.2461 107.157 18.8697C107.146 19.0009 107.135 19.1213 107.135 19.2416C107.135 19.2744 107.135 19.3182 107.135 19.351C107.168 21.9763 109.968 24 113.786 24C117.822 24 121.519 21.7357 122.219 18.8915C122.394 18.2571 122.602 17.2945 122.722 16.5944C122.854 15.8396 122.996 14.8113 123.04 14.1331C123.182 11.3874 120.327 9.24341 116.389 9.24341L116.378 9.25435ZM118.084 13.9581C118.084 13.9581 117.789 16.0365 117.68 16.6162C117.57 17.2507 117.012 19.7229 117.012 19.7229C116.586 20.8934 115.404 21.7685 114.168 21.7685C112.79 21.7685 111.871 20.6636 112.079 19.2963C112.079 19.2963 112.374 17.196 112.484 16.6162C112.604 15.9271 112.921 14.3519 113.096 13.7174C113.468 12.4704 114.704 11.4968 115.995 11.4968C117.362 11.4968 118.292 12.5907 118.084 13.9581Z" fill="#414F56"/>
<path d="M153.288 10.2387C153.233 10.009 153.037 9.83396 152.807 9.80115H145.281C144.658 9.80115 144.111 10.1512 143.815 10.6653C143.815 10.6872 143.793 10.6981 143.782 10.72L136.924 23.4092H141.649C141.835 23.3873 141.999 23.2779 142.098 23.1248L142.131 23.0591L143.148 21.1886C143.246 20.9917 143.443 20.8604 143.673 20.8604H149.766C150.05 20.8604 150.291 21.0573 150.346 21.3308L150.652 22.9607C150.718 23.2232 150.947 23.4092 151.232 23.4092H155.738L153.277 10.2496L153.288 10.2387ZM147.677 12.7984C147.775 12.6015 147.972 12.4702 148.202 12.4702C148.475 12.4702 148.705 12.6562 148.77 12.9078L149.886 18.9023H144.373L147.666 12.7984H147.677Z" fill="#414F56"/>
<path d="M138.895 13.2032C139.19 13.2032 139.431 12.9953 139.486 12.7109L139.88 10.4794C139.88 10.4794 139.88 10.4247 139.88 10.3918C139.88 10.0637 139.617 9.80115 139.289 9.80115H126.108C125.265 9.80115 124.565 10.4137 124.434 11.2232L124.084 13.2032H129.006C129.335 13.2032 129.597 13.4657 129.597 13.7939C129.597 13.8267 129.597 13.8595 129.597 13.8814L127.913 23.3982H132.518C132.813 23.3982 133.054 23.1904 133.108 22.906L134.727 13.6954C134.771 13.411 135.012 13.1922 135.318 13.1922H138.906L138.895 13.2032Z" fill="#414F56"/>
<path d="M116.378 9.25435C112.385 9.25435 108.732 11.464 107.977 14.2534C107.791 14.8988 107.583 15.8943 107.463 16.6053C107.343 17.2835 107.211 18.2461 107.157 18.8697C107.146 19.0009 107.135 19.1213 107.135 19.2416C107.135 19.2744 107.135 19.3182 107.135 19.351C107.168 21.9763 109.968 24 113.786 24C117.822 24 121.519 21.7357 122.219 18.8915C122.394 18.2571 122.602 17.2945 122.722 16.5944C122.854 15.8396 122.996 14.8113 123.04 14.1331C123.182 11.3874 120.327 9.24341 116.389 9.24341L116.378 9.25435ZM118.084 13.9581C118.084 13.9581 117.789 16.0365 117.68 16.6162C117.57 17.2507 117.012 19.7229 117.012 19.7229C116.586 20.8934 115.404 21.7685 114.168 21.7685C112.79 21.7685 111.871 20.6636 112.079 19.2963C112.079 19.2963 112.374 17.196 112.484 16.6162C112.604 15.9271 112.921 14.3519 113.096 13.7174C113.468 12.4704 114.704 11.4968 115.995 11.4968C117.362 11.4968 118.292 12.5907 118.084 13.9581Z" fill="#414F56"/>
<path d="M153.288 10.2387C153.233 10.009 153.037 9.83396 152.807 9.80115H145.281C144.658 9.80115 144.111 10.1512 143.815 10.6653C143.815 10.6872 143.793 10.6981 143.782 10.72L136.924 23.4092H141.649C141.835 23.3873 141.999 23.2779 142.098 23.1248L142.131 23.0591L143.148 21.1886C143.246 20.9917 143.443 20.8604 143.673 20.8604H149.766C150.05 20.8604 150.291 21.0573 150.346 21.3308L150.652 22.9607C150.718 23.2232 150.947 23.4092 151.232 23.4092H155.738L153.277 10.2496L153.288 10.2387ZM147.677 12.7984C147.775 12.6015 147.972 12.4702 148.202 12.4702C148.475 12.4702 148.705 12.6562 148.77 12.9078L149.886 18.9023H144.373L147.666 12.7984H147.677Z" fill="#414F56"/>
<path d="M9.13867 23.3981H14.794L13.8642 20.7837L11.7749 20.6196L9.13867 23.3872V23.3981Z" fill="#028687"/>
<path d="M31.3108 23.3985H25.9727C25.9727 23.3985 27.5916 20.8497 27.7338 20.8497C27.876 20.8497 30.6435 20.9044 30.7201 20.981C30.7966 21.0576 31.3108 23.3985 31.3108 23.3985Z" fill="#028687"/>
<path d="M43.3203 23.3985H49.271V21.517L46.4925 20.3466C46.4925 20.3466 44.0423 21.0576 44.0751 21.1451C44.097 21.2217 43.3313 23.3985 43.3313 23.3985H43.3203Z" fill="#028687"/>
<path d="M53.465 21.3855C53.465 21.2761 55.6965 20.8276 55.7183 20.751C55.7402 20.6745 57.8733 21.1995 57.8733 21.1995L58.3765 23.3983H52.4258L53.5197 21.5168L53.465 21.3855Z" fill="#028687"/>
<path d="M68.1051 0.0113525V0.0222915L67.777 4.69321H65.7642H28.1787H26.1879L26.1113 0.0113525H68.1051Z" fill="#028687"/>
<path d="M64.8927 17.5349H22.7129L22.5488 13.1484H66.4132L64.8927 17.5349Z" fill="#028687"/>
<path d="M63.8211 23.3983H67.9122L65.2869 15.9489L60.4629 15.8942L62.8585 22.7419C63.0007 23.1248 63.3726 23.3983 63.8101 23.3983H63.8211Z" fill="#028687"/>
<path d="M60.3828 16.9556V17.5353C60.8313 17.5353 61.1485 17.8307 61.2798 18.2354H61.6517V16.9665H60.3828V16.9556Z" fill="#028687"/>
<path d="M28.1552 0.0109389L28.013 0.798541L27.488 3.77393L27.4005 4.23336L27.3239 4.68186L27.1817 5.50228L25.8253 13.1376L25.2018 16.6272L25.0377 17.5242L24.8955 18.3008L24.7533 19.0884C24.6767 19.5807 24.2501 19.9417 23.7469 19.9417H19.8418L22.9593 2.45032C22.9593 2.45032 22.9703 2.38468 22.9812 2.35187C23.2437 1.00638 24.4251 0 25.8472 0H28.1662L28.1552 0.0109389Z" fill="#028687"/>
<path d="M71.4926 3.67548C71.4926 3.8505 71.4817 4.02552 71.4598 4.20055L69.5893 14.6363C69.5893 14.6363 69.5893 14.6363 69.5893 14.6472C69.2392 16.2881 67.8063 17.5242 66.067 17.546H64.2949L67.0187 2.45032C67.2484 1.06108 65.9357 0 67.3906 0H67.8938C69.8956 0.0328168 71.5035 1.66272 71.5035 3.66454L71.4926 3.67548Z" fill="#028687"/>
<path d="M28.1826 4.69267V3.7738H26.2246V5.51309H27.1872C27.2747 5.04272 27.6904 4.69267 28.1936 4.69267H28.1826Z" fill="#028687"/>
<path d="M25.876 17.5353V16.6493H23.918V18.3886H24.8696C24.9571 17.9073 25.3728 17.5353 25.876 17.5353Z" fill="#028687"/>
<path d="M66.9021 10.3922C66.9021 10.3922 64.7691 14.8225 64.7472 14.91C64.7253 14.9975 62.0781 13.9255 62.0781 13.9255L62.1656 13.1489C63.894 13.0723 65.316 11.7924 65.6113 10.1188L66.9021 10.3922Z" fill="#028687"/>
<path d="M66.9966 4.48524L66.6356 5.5135H66.4497C66.5263 5.05407 66.22 4.69308 65.7715 4.69308L65.8262 4.37585L66.9966 4.4743V4.48524Z" fill="#028687"/>
<path d="M16.4974 22.5778C16.4755 22.8185 16.4646 22.9169 16.4318 23.0701C16.4318 23.0701 16.4318 23.081 16.4318 23.0919C16.388 23.256 16.2458 23.3873 16.0708 23.3982H13.9924C13.9924 23.3982 13.9924 23.3982 13.9924 23.3873C14.08 23.0919 14.0909 23.0482 14.1675 22.6653C14.2878 21.9324 13.7846 21.473 12.7345 21.473C11.6844 21.473 11.0499 21.8668 10.8421 22.5341C10.7765 22.7747 10.7546 22.8185 10.689 23.0701C10.689 23.081 10.689 23.1029 10.678 23.1138C10.6233 23.267 10.4921 23.3763 10.328 23.3873H10.2733C10.2733 23.3873 10.2733 23.3873 10.2623 23.3873H8.2168C8.2168 23.3873 8.2168 23.3873 8.2168 23.3763C8.24961 23.1794 8.27149 23.081 8.29337 22.9935C8.31525 22.895 8.34806 22.8075 8.39182 22.6325C8.81843 21.1229 10.7874 19.9415 12.9314 19.9415C15.0754 19.9415 16.574 21.1011 16.4865 22.5778H16.4974Z" fill="#028687"/>
<path d="M33.3568 22.5778C33.3349 22.8185 33.324 22.9169 33.2912 23.0701C33.2912 23.0701 33.2912 23.081 33.2912 23.0919C33.2474 23.256 33.1052 23.3873 32.9302 23.3982H30.8518C30.8518 23.3982 30.8518 23.3982 30.8518 23.3873C30.9393 23.0919 30.9503 23.0482 31.0268 22.6653C31.1472 21.9324 30.644 21.473 29.5939 21.473C28.5438 21.473 27.9093 21.8668 27.7015 22.5341C27.6358 22.7747 27.614 22.8185 27.5483 23.0701C27.5483 23.081 27.5483 23.1029 27.5374 23.1138C27.4827 23.267 27.3514 23.3763 27.1873 23.3873H27.1327H27.1217H25.0762C25.0762 23.3873 25.0762 23.3873 25.0762 23.3763C25.109 23.1794 25.1309 23.081 25.1527 22.9935C25.1746 22.895 25.2074 22.8075 25.2512 22.6325C25.6778 21.1229 27.6468 19.9415 29.8017 19.9415C31.9566 19.9415 33.4443 21.1011 33.3568 22.5778Z" fill="#028687"/>
<path d="M59.7377 22.5778C59.7158 22.8185 59.7048 22.9169 59.672 23.0701C59.672 23.0701 59.672 23.081 59.672 23.0919C59.6283 23.256 59.4861 23.3873 59.311 23.3982H57.2327C57.2327 23.3982 57.2327 23.3982 57.2327 23.3873C57.3202 23.0919 57.3311 23.0482 57.4077 22.6653C57.528 21.9324 57.0248 21.473 55.9747 21.473C54.9246 21.473 54.2902 21.8668 54.0823 22.5341C54.0167 22.7747 53.9948 22.8185 53.9292 23.0701C53.9292 23.081 53.9292 23.1029 53.9182 23.1138C53.8636 23.267 53.7323 23.3763 53.5682 23.3873H53.5135C53.5135 23.3873 53.5135 23.3873 53.5026 23.3873H51.457C51.457 23.3873 51.457 23.3873 51.457 23.3763C51.4898 23.1794 51.5117 23.081 51.5336 22.9935C51.5555 22.895 51.5883 22.8075 51.6321 22.6325C52.0587 21.1229 54.0276 19.9415 56.1716 19.9415C58.3156 19.9415 59.8142 21.1011 59.7267 22.5778H59.7377Z" fill="#028687"/>
<path d="M50.6146 22.5778C50.5927 22.8185 50.5818 22.9169 50.549 23.0701C50.549 23.0701 50.549 23.081 50.549 23.0919C50.5052 23.256 50.363 23.3873 50.188 23.3982H48.1096C48.1096 23.3982 48.1096 23.3982 48.1096 23.3873C48.1971 23.0919 48.2081 23.0482 48.2847 22.6653C48.405 21.9324 47.9018 21.473 46.8517 21.473C45.8016 21.473 45.1671 21.8668 44.9593 22.5341C44.8936 22.7747 44.8718 22.8185 44.8061 23.0701C44.8061 23.081 44.8061 23.1029 44.7952 23.1138C44.7514 23.267 44.6092 23.3763 44.4452 23.3873H44.3905H44.3795H42.334C42.334 23.3873 42.334 23.3873 42.334 23.3763C42.3668 23.1794 42.3887 23.081 42.4106 22.9935C42.4324 22.895 42.4652 22.8075 42.509 22.6325C42.9356 21.1229 44.9046 19.9415 47.0486 19.9415C49.1926 19.9415 50.6912 21.1011 50.6037 22.5778H50.6146Z" fill="#028687"/>
<path d="M27.0296 0.0113525H25.8373C24.4153 0.0113525 23.2339 1.01773 22.9713 2.36322C22.6432 3.59932 21.5931 4.54007 20.2914 4.69321H11.2669C9.49482 4.69321 7.81026 6.12621 7.49303 7.90925L6.84765 11.716H14.6251C15.183 11.716 15.6315 12.1754 15.6315 12.7443C15.6315 12.8099 15.6315 12.8646 15.6096 12.9193L15.0955 15.6978C15.0079 16.1681 14.5923 16.5182 14.1 16.5291H6.82577C6.32259 16.5291 5.90692 16.901 5.81941 17.3824L5.63345 18.4216L4.90055 22.5674C4.82398 23.0487 4.39737 23.4206 3.89419 23.4206H0L2.95346 6.64034C2.95346 6.64034 2.9644 6.54189 2.97534 6.48719V6.41062C3.63166 2.87735 7.00079 0.0222914 10.534 0.0222914H10.5668C10.6434 0.0222914 10.7309 0.0222914 10.8075 0.0222914H26.9859H27.0077L27.0296 0.0113525Z" fill="#028687"/>
<path d="M27.0324 0.0113525H25.8401C24.418 0.0113525 23.2366 1.01773 22.9741 2.36322C22.646 3.59932 21.5958 4.54007 20.2941 4.69321H11.2697C10.9196 4.69321 10.5696 4.74791 10.2305 4.8573C10.1211 3.31491 10.0227 1.53186 10.0117 0.0441693C10.1867 0.0332304 10.3727 0.0222915 10.5587 0.0222915H10.5915C10.668 0.0222915 10.7556 0.0222915 10.8321 0.0222915H27.0105H27.0324V0.0113525Z" fill="url(#paint0_linear_324_1441)"/>
<defs>
<linearGradient id="paint0_linear_324_1441" x1="21.0817" y1="4.8573" x2="15.5247" y2="-0.666765" gradientUnits="userSpaceOnUse">
<stop offset="0.09" stop-color="#075E74"/>
<stop offset="0.15" stop-color="#075E74"/>
<stop offset="0.25" stop-color="#066577"/>
<stop offset="0.62" stop-color="#037D82"/>
<stop offset="0.85" stop-color="#028687"/>
</linearGradient>
</defs>
</svg>
