<svg width="729" height="91" viewBox="0 0 729 91" fill="none" xmlns="http://www.w3.org/2000/svg">
<path d="M694.58 2.51001H650.62L617.17 89.24H647.15L653.12 72.16H691.23C693.78 79.01 695.81 84.7 697.32 89.24H728.26L694.58 2.51001ZM659.94 53.52C665.35 38.87 669.46 27.92 672.25 20.67L675.11 28.43C678.3 36.79 681.4 45.15 684.43 53.52H659.94Z" fill="#404E55"/>
<path d="M202.05 45.87C202.05 59.33 201.73 73.78 201.09 89.23H229.28V59.49C232.7 59.41 237.76 59.37 244.45 59.37C260.54 59.37 275.83 59.65 290.32 60.21V36.8C275.82 37.28 261.57 37.51 247.55 37.51C239.43 37.51 233.34 37.47 229.27 37.39V24.85H294.26V2.51001H201.08C201.72 17.96 202.04 32.42 202.04 45.87H202.05Z" fill="#404E55"/>
<path d="M394.68 48.98C398.07 44.2 399.76 38.35 399.76 31.42C399.76 22.58 396.57 15.57 390.21 10.4C383.84 5.22001 372.61 2.63001 356.52 2.63001H332.03V2.51001H303.84C304.48 17.96 304.79 32.42 304.79 45.87C304.79 59.32 304.47 73.78 303.84 89.23H332.03V61.52H349.59C357.15 73.47 362.69 82.71 366.2 89.23H398.69L379.34 62.35C378.94 61.64 378.27 60.64 377.31 59.36C385.51 57.21 391.31 53.75 394.69 48.97L394.68 48.98ZM370.73 36.43C369.37 37.39 366.96 38.08 363.5 38.52C360.04 38.96 354.92 39.18 348.15 39.18H332.02V25.56H348.15C355 25.56 360.18 25.76 363.68 26.16C367.18 26.56 369.57 27.24 370.85 28.19C372.12 29.15 372.76 30.5 372.76 32.25C372.76 34 372.08 35.48 370.73 36.43Z" fill="#404E55"/>
<path d="M502.91 11.94C494.35 3.98 480.87 0 462.47 0C444.07 0 430.71 3.98 422.15 11.94C413.59 19.9 409.31 30.98 409.31 45.15C409.31 59.32 413.61 70.62 422.21 78.54C430.81 86.46 444.23 90.43 462.47 90.43C480.71 90.43 494.45 86.49 502.97 78.6C511.49 70.72 515.75 59.57 515.75 45.15C515.75 30.73 511.47 19.9 502.91 11.94ZM481.58 60.98C477.68 64.37 471.31 66.06 462.47 66.06C453.63 66.06 447.38 64.35 443.48 60.92C439.58 57.5 437.63 52.24 437.63 45.15C437.63 38.06 439.58 32.93 443.48 29.5C447.38 26.08 453.71 24.36 462.47 24.36C471.23 24.36 477.68 26.07 481.58 29.5C485.48 32.92 487.43 38.14 487.43 45.15C487.43 52.16 485.48 57.59 481.58 60.98Z" fill="#404E55"/>
<path d="M621.95 2.51001H519.33V27.6C531.67 27.2 543.78 26.96 555.64 26.88V89.24H585.5V26.88C597.29 26.96 609.43 27.2 621.94 27.6V2.51001H621.95Z" fill="#404E55"/>
<path d="M130.86 75.8C124.06 75.8 118.55 81.31 118.55 88.11C118.55 88.46 118.57 88.8 118.6 89.14H143.13C143.16 88.8 143.18 88.46 143.18 88.11C143.18 81.31 137.67 75.8 130.87 75.8H130.86Z" fill="#008485"/>
<path d="M43.6098 75.8C36.8098 75.8 31.2998 81.31 31.2998 88.11C31.2998 88.46 31.3198 88.8 31.3498 89.14H55.8798C55.9098 88.8 55.9298 88.46 55.9298 88.11C55.9298 81.31 50.4198 75.8 43.6198 75.8H43.6098Z" fill="#008485"/>
<path d="M12.31 75.8C5.51 75.8 0 81.31 0 88.11C0 88.46 0.02 88.8 0.05 89.14H24.58C24.61 88.8 24.63 88.46 24.63 88.11C24.63 81.31 19.12 75.8 12.32 75.8H12.31Z" fill="#008485"/>
<path d="M136.86 25.1901L158.91 25.1301L158.89 9.36005C158.56 5.98005 156.28 3.59005 152.79 3.18005L92.9502 3.22005L93.0202 3.29005L114.71 25.0701L125.77 36.1701L104.01 36.3601L123.39 55.8001C124.94 57.4701 126.92 58.3401 129.21 58.3001L136.99 58.3901L150.62 71.9601L158.74 80.09V52.4201C158.74 52.3601 158.74 52.3101 158.74 52.2401C158.86 49.7001 158.93 47.2401 156.97 45.2801L136.86 25.1801V25.1901Z" fill="#008485"/>
<path d="M109.77 61.46L93.94 45.5601H21.78V25.08H95.75L74.06 3.30005H6.13C2.75 3.30005 0 6.04005 0 9.43005V61.05L0.28 60.89V61.21C0.28 64.6 3.03 67.34 6.41 67.34H82.53L64.54 85.4H64.49L60.76 89.13H92.03C92.1 89.13 92.16 89.11 92.22 89.1C93.58 88.91 94.65 88.3101 95.81 87.15L115.61 67.34L109.76 61.46H109.77Z" fill="#008485"/>
</svg>
