<svg width="155" height="115" viewBox="0 0 155 115" fill="none" xmlns="http://www.w3.org/2000/svg">
<path d="M15.9485 113.01C15.5085 113.01 15.1052 112.91 14.7385 112.71C14.3785 112.504 14.0885 112.2 13.8685 111.8C13.6552 111.4 13.5485 110.9 13.5485 110.3C13.5485 109.7 13.6518 109.2 13.8585 108.8C14.0718 108.4 14.3585 108.1 14.7185 107.9C15.0852 107.7 15.4952 107.6 15.9485 107.6C16.4685 107.6 16.9285 107.714 17.3285 107.94C17.7285 108.167 18.0452 108.484 18.2785 108.89C18.5118 109.29 18.6285 109.76 18.6285 110.3C18.6285 110.84 18.5118 111.314 18.2785 111.72C18.0452 112.127 17.7285 112.444 17.3285 112.67C16.9285 112.897 16.4685 113.01 15.9485 113.01ZM13.1385 114.89V107.65H14.0585V109.08L13.9985 110.31L14.0985 111.54V114.89H13.1385ZM15.8685 112.17C16.2085 112.17 16.5118 112.094 16.7785 111.94C17.0518 111.787 17.2652 111.57 17.4185 111.29C17.5785 111.004 17.6585 110.674 17.6585 110.3C17.6585 109.92 17.5785 109.594 17.4185 109.32C17.2652 109.04 17.0518 108.824 16.7785 108.67C16.5118 108.517 16.2085 108.44 15.8685 108.44C15.5352 108.44 15.2318 108.517 14.9585 108.67C14.6918 108.824 14.4785 109.04 14.3185 109.32C14.1652 109.594 14.0885 109.92 14.0885 110.3C14.0885 110.674 14.1652 111.004 14.3185 111.29C14.4785 111.57 14.6918 111.787 14.9585 111.94C15.2318 112.094 15.5352 112.17 15.8685 112.17ZM22.2249 113.01C21.6916 113.01 21.2183 112.894 20.8049 112.66C20.3916 112.427 20.0649 112.107 19.8249 111.7C19.5849 111.287 19.4649 110.82 19.4649 110.3C19.4649 109.774 19.5849 109.307 19.8249 108.9C20.0649 108.494 20.3916 108.177 20.8049 107.95C21.2183 107.717 21.6916 107.6 22.2249 107.6C22.7516 107.6 23.2216 107.717 23.6349 107.95C24.0549 108.177 24.3816 108.494 24.6149 108.9C24.8549 109.3 24.9749 109.767 24.9749 110.3C24.9749 110.827 24.8549 111.294 24.6149 111.7C24.3816 112.107 24.0549 112.427 23.6349 112.66C23.2216 112.894 22.7516 113.01 22.2249 113.01ZM22.2249 112.17C22.5649 112.17 22.8683 112.094 23.1349 111.94C23.4083 111.787 23.6216 111.57 23.7749 111.29C23.9283 111.004 24.0049 110.674 24.0049 110.3C24.0049 109.92 23.9283 109.594 23.7749 109.32C23.6216 109.04 23.4083 108.824 23.1349 108.67C22.8683 108.517 22.5649 108.44 22.2249 108.44C21.8849 108.44 21.5816 108.517 21.3149 108.67C21.0483 108.824 20.8349 109.04 20.6749 109.32C20.5149 109.594 20.4349 109.92 20.4349 110.3C20.4349 110.674 20.5149 111.004 20.6749 111.29C20.8349 111.57 21.0483 111.787 21.3149 111.94C21.5816 112.094 21.8849 112.17 22.2249 112.17ZM26.3026 112.95V107.65H27.2226V109.09L27.1326 108.73C27.2792 108.364 27.5259 108.084 27.8726 107.89C28.2192 107.697 28.6459 107.6 29.1526 107.6V108.53C29.1126 108.524 29.0726 108.52 29.0326 108.52C28.9992 108.52 28.9659 108.52 28.9326 108.52C28.4192 108.52 28.0126 108.674 27.7126 108.98C27.4126 109.287 27.2626 109.73 27.2626 110.31V112.95H26.3026ZM34.9097 113.01C34.3764 113.01 33.963 112.867 33.6697 112.58C33.3764 112.294 33.2297 111.884 33.2297 111.35V106.49H34.1897V111.31C34.1897 111.597 34.2597 111.817 34.3997 111.97C34.5464 112.124 34.753 112.2 35.0197 112.2C35.3197 112.2 35.5697 112.117 35.7697 111.95L36.0697 112.64C35.923 112.767 35.7464 112.86 35.5397 112.92C35.3397 112.98 35.1297 113.01 34.9097 113.01ZM32.3297 108.44V107.65H35.7097V108.44H32.3297ZM37.2303 112.95V107.65H38.1503V109.09L38.0603 108.73C38.207 108.364 38.4536 108.084 38.8003 107.89C39.147 107.697 39.5736 107.6 40.0803 107.6V108.53C40.0403 108.524 40.0003 108.52 39.9603 108.52C39.927 108.52 39.8936 108.52 39.8603 108.52C39.347 108.52 38.9403 108.674 38.6403 108.98C38.3403 109.287 38.1903 109.73 38.1903 110.31V112.95H37.2303ZM44.1629 112.95V111.83L44.1129 111.62V109.71C44.1129 109.304 43.9929 108.99 43.7529 108.77C43.5196 108.544 43.1662 108.43 42.6929 108.43C42.3796 108.43 42.0729 108.484 41.7729 108.59C41.4729 108.69 41.2196 108.827 41.0129 109L40.6129 108.28C40.8862 108.06 41.2129 107.894 41.5929 107.78C41.9796 107.66 42.3829 107.6 42.8029 107.6C43.5296 107.6 44.0896 107.777 44.4829 108.13C44.8762 108.484 45.0729 109.024 45.0729 109.75V112.95H44.1629ZM42.4229 113.01C42.0296 113.01 41.6829 112.944 41.3829 112.81C41.0896 112.677 40.8629 112.494 40.7029 112.26C40.5429 112.02 40.4629 111.75 40.4629 111.45C40.4629 111.164 40.5296 110.904 40.6629 110.67C40.8029 110.437 41.0262 110.25 41.3329 110.11C41.6462 109.97 42.0662 109.9 42.5929 109.9H44.2729V110.59H42.6329C42.1529 110.59 41.8296 110.67 41.6629 110.83C41.4962 110.99 41.4129 111.184 41.4129 111.41C41.4129 111.67 41.5162 111.88 41.7229 112.04C41.9296 112.194 42.2162 112.27 42.5829 112.27C42.9429 112.27 43.2562 112.19 43.5229 112.03C43.7962 111.87 43.9929 111.637 44.1129 111.33L44.3029 111.99C44.1762 112.304 43.9529 112.554 43.6329 112.74C43.3129 112.92 42.9096 113.01 42.4229 113.01ZM49.6795 107.6C50.1128 107.6 50.4928 107.684 50.8195 107.85C51.1528 108.017 51.4128 108.27 51.5995 108.61C51.7861 108.95 51.8795 109.38 51.8795 109.9V112.95H50.9195V110.01C50.9195 109.497 50.7928 109.11 50.5395 108.85C50.2928 108.59 49.9428 108.46 49.4895 108.46C49.1495 108.46 48.8528 108.527 48.5995 108.66C48.3461 108.794 48.1495 108.99 48.0095 109.25C47.8761 109.51 47.8095 109.834 47.8095 110.22V112.95H46.8495V107.65H47.7695V109.08L47.6195 108.7C47.7928 108.354 48.0595 108.084 48.4195 107.89C48.7795 107.697 49.1995 107.6 49.6795 107.6ZM55.1761 113.01C54.7361 113.01 54.3161 112.95 53.9161 112.83C53.5228 112.71 53.2128 112.564 52.9861 112.39L53.3861 111.63C53.6128 111.784 53.8928 111.914 54.2261 112.02C54.5594 112.127 54.8994 112.18 55.2461 112.18C55.6928 112.18 56.0128 112.117 56.2061 111.99C56.4061 111.864 56.5061 111.687 56.5061 111.46C56.5061 111.294 56.4461 111.164 56.3261 111.07C56.2061 110.977 56.0461 110.907 55.8461 110.86C55.6528 110.814 55.4361 110.774 55.1961 110.74C54.9561 110.7 54.7161 110.654 54.4761 110.6C54.2361 110.54 54.0161 110.46 53.8161 110.36C53.6161 110.254 53.4561 110.11 53.3361 109.93C53.2161 109.744 53.1561 109.497 53.1561 109.19C53.1561 108.87 53.2461 108.59 53.4261 108.35C53.6061 108.11 53.8594 107.927 54.1861 107.8C54.5194 107.667 54.9128 107.6 55.3661 107.6C55.7128 107.6 56.0628 107.644 56.4161 107.73C56.7761 107.81 57.0694 107.927 57.2961 108.08L56.8861 108.84C56.6461 108.68 56.3961 108.57 56.1361 108.51C55.8761 108.45 55.6161 108.42 55.3561 108.42C54.9361 108.42 54.6228 108.49 54.4161 108.63C54.2094 108.764 54.1061 108.937 54.1061 109.15C54.1061 109.33 54.1661 109.47 54.2861 109.57C54.4128 109.664 54.5728 109.737 54.7661 109.79C54.9661 109.844 55.1861 109.89 55.4261 109.93C55.6661 109.964 55.9061 110.01 56.1461 110.07C56.3861 110.124 56.6028 110.2 56.7961 110.3C56.9961 110.4 57.1561 110.54 57.2761 110.72C57.4028 110.9 57.4661 111.14 57.4661 111.44C57.4661 111.76 57.3728 112.037 57.1861 112.27C56.9994 112.504 56.7361 112.687 56.3961 112.82C56.0561 112.947 55.6494 113.01 55.1761 113.01ZM61.4759 113.01C61.0359 113.01 60.6325 112.91 60.2659 112.71C59.9059 112.504 59.6159 112.2 59.3959 111.8C59.1825 111.4 59.0759 110.9 59.0759 110.3C59.0759 109.7 59.1792 109.2 59.3859 108.8C59.5992 108.4 59.8859 108.1 60.2459 107.9C60.6125 107.7 61.0225 107.6 61.4759 107.6C61.9959 107.6 62.4559 107.714 62.8559 107.94C63.2559 108.167 63.5725 108.484 63.8059 108.89C64.0392 109.29 64.1559 109.76 64.1559 110.3C64.1559 110.84 64.0392 111.314 63.8059 111.72C63.5725 112.127 63.2559 112.444 62.8559 112.67C62.4559 112.897 61.9959 113.01 61.4759 113.01ZM58.6659 114.89V107.65H59.5859V109.08L59.5259 110.31L59.6259 111.54V114.89H58.6659ZM61.3959 112.17C61.7359 112.17 62.0392 112.094 62.3059 111.94C62.5792 111.787 62.7925 111.57 62.9459 111.29C63.1059 111.004 63.1859 110.674 63.1859 110.3C63.1859 109.92 63.1059 109.594 62.9459 109.32C62.7925 109.04 62.5792 108.824 62.3059 108.67C62.0392 108.517 61.7359 108.44 61.3959 108.44C61.0625 108.44 60.7592 108.517 60.4859 108.67C60.2192 108.824 60.0059 109.04 59.8459 109.32C59.6925 109.594 59.6159 109.92 59.6159 110.3C59.6159 110.674 59.6925 111.004 59.8459 111.29C60.0059 111.57 60.2192 111.787 60.4859 111.94C60.7592 112.094 61.0625 112.17 61.3959 112.17ZM67.7523 113.01C67.2189 113.01 66.7456 112.894 66.3323 112.66C65.9189 112.427 65.5923 112.107 65.3523 111.7C65.1123 111.287 64.9923 110.82 64.9923 110.3C64.9923 109.774 65.1123 109.307 65.3523 108.9C65.5923 108.494 65.9189 108.177 66.3323 107.95C66.7456 107.717 67.2189 107.6 67.7523 107.6C68.2789 107.6 68.7489 107.717 69.1623 107.95C69.5823 108.177 69.9089 108.494 70.1423 108.9C70.3823 109.3 70.5023 109.767 70.5023 110.3C70.5023 110.827 70.3823 111.294 70.1423 111.7C69.9089 112.107 69.5823 112.427 69.1623 112.66C68.7489 112.894 68.2789 113.01 67.7523 113.01ZM67.7523 112.17C68.0923 112.17 68.3956 112.094 68.6623 111.94C68.9356 111.787 69.1489 111.57 69.3023 111.29C69.4556 111.004 69.5323 110.674 69.5323 110.3C69.5323 109.92 69.4556 109.594 69.3023 109.32C69.1489 109.04 68.9356 108.824 68.6623 108.67C68.3956 108.517 68.0923 108.44 67.7523 108.44C67.4123 108.44 67.1089 108.517 66.8423 108.67C66.5756 108.824 66.3623 109.04 66.2023 109.32C66.0423 109.594 65.9623 109.92 65.9623 110.3C65.9623 110.674 66.0423 111.004 66.2023 111.29C66.3623 111.57 66.5756 111.787 66.8423 111.94C67.1089 112.094 67.4123 112.17 67.7523 112.17ZM71.8299 112.95V107.65H72.7499V109.09L72.6599 108.73C72.8066 108.364 73.0533 108.084 73.3999 107.89C73.7466 107.697 74.1733 107.6 74.6799 107.6V108.53C74.6399 108.524 74.5999 108.52 74.5599 108.52C74.5266 108.52 74.4933 108.52 74.4599 108.52C73.9466 108.52 73.5399 108.674 73.2399 108.98C72.9399 109.287 72.7899 109.73 72.7899 110.31V112.95H71.8299ZM77.898 113.01C77.3646 113.01 76.9513 112.867 76.658 112.58C76.3646 112.294 76.218 111.884 76.218 111.35V106.49H77.178V111.31C77.178 111.597 77.248 111.817 77.388 111.97C77.5346 112.124 77.7413 112.2 78.008 112.2C78.308 112.2 78.558 112.117 78.758 111.95L79.058 112.64C78.9113 112.767 78.7346 112.86 78.528 112.92C78.328 112.98 78.118 113.01 77.898 113.01ZM75.318 108.44V107.65H78.698V108.44H75.318ZM82.4028 113.01C81.8361 113.01 81.3361 112.894 80.9028 112.66C80.4761 112.427 80.1428 112.107 79.9028 111.7C79.6695 111.294 79.5528 110.827 79.5528 110.3C79.5528 109.774 79.6661 109.307 79.8928 108.9C80.1261 108.494 80.4428 108.177 80.8428 107.95C81.2495 107.717 81.7061 107.6 82.2128 107.6C82.7261 107.6 83.1795 107.714 83.5728 107.94C83.9661 108.167 84.2728 108.487 84.4928 108.9C84.7195 109.307 84.8328 109.784 84.8328 110.33C84.8328 110.37 84.8295 110.417 84.8228 110.47C84.8228 110.524 84.8195 110.574 84.8128 110.62H80.3028V109.93H84.3128L83.9228 110.17C83.9295 109.83 83.8595 109.527 83.7128 109.26C83.5661 108.994 83.3628 108.787 83.1028 108.64C82.8495 108.487 82.5528 108.41 82.2128 108.41C81.8795 108.41 81.5828 108.487 81.3228 108.64C81.0628 108.787 80.8595 108.997 80.7128 109.27C80.5661 109.537 80.4928 109.844 80.4928 110.19V110.35C80.4928 110.704 80.5728 111.02 80.7328 111.3C80.8995 111.574 81.1295 111.787 81.4228 111.94C81.7161 112.094 82.0528 112.17 82.4328 112.17C82.7461 112.17 83.0295 112.117 83.2828 112.01C83.5428 111.904 83.7695 111.744 83.9628 111.53L84.4928 112.15C84.2528 112.43 83.9528 112.644 83.5928 112.79C83.2395 112.937 82.8428 113.01 82.4028 113.01ZM86.3059 112.95V107.18C86.3059 106.66 86.4559 106.247 86.7559 105.94C87.0625 105.627 87.4959 105.47 88.0559 105.47C88.2625 105.47 88.4592 105.497 88.6459 105.55C88.8392 105.597 89.0025 105.674 89.1359 105.78L88.8459 106.51C88.7459 106.43 88.6325 106.37 88.5059 106.33C88.3792 106.284 88.2459 106.26 88.1059 106.26C87.8259 106.26 87.6125 106.34 87.4659 106.5C87.3192 106.654 87.2459 106.884 87.2459 107.19V107.9L87.2659 108.34V112.95H86.3059ZM85.4059 108.44V107.65H88.7859V108.44H85.4059ZM92.8836 112.95V111.83L92.8336 111.62V109.71C92.8336 109.304 92.7136 108.99 92.4736 108.77C92.2403 108.544 91.8869 108.43 91.4136 108.43C91.1003 108.43 90.7936 108.484 90.4936 108.59C90.1936 108.69 89.9403 108.827 89.7336 109L89.3336 108.28C89.6069 108.06 89.9336 107.894 90.3136 107.78C90.7003 107.66 91.1036 107.6 91.5236 107.6C92.2503 107.6 92.8103 107.777 93.2036 108.13C93.5969 108.484 93.7936 109.024 93.7936 109.75V112.95H92.8836ZM91.1436 113.01C90.7503 113.01 90.4036 112.944 90.1036 112.81C89.8103 112.677 89.5836 112.494 89.4236 112.26C89.2636 112.02 89.1836 111.75 89.1836 111.45C89.1836 111.164 89.2503 110.904 89.3836 110.67C89.5236 110.437 89.7469 110.25 90.0536 110.11C90.3669 109.97 90.7869 109.9 91.3136 109.9H92.9936V110.59H91.3536C90.8736 110.59 90.5503 110.67 90.3836 110.83C90.2169 110.99 90.1336 111.184 90.1336 111.41C90.1336 111.67 90.2369 111.88 90.4436 112.04C90.6503 112.194 90.9369 112.27 91.3036 112.27C91.6636 112.27 91.9769 112.19 92.2436 112.03C92.5169 111.87 92.7136 111.637 92.8336 111.33L93.0236 111.99C92.8969 112.304 92.6736 112.554 92.3536 112.74C92.0336 112.92 91.6303 113.01 91.1436 113.01ZM97.8802 113.01C97.3402 113.01 96.8568 112.894 96.4302 112.66C96.0102 112.427 95.6802 112.107 95.4402 111.7C95.2002 111.294 95.0802 110.827 95.0802 110.3C95.0802 109.774 95.2002 109.307 95.4402 108.9C95.6802 108.494 96.0102 108.177 96.4302 107.95C96.8568 107.717 97.3402 107.6 97.8802 107.6C98.3602 107.6 98.7868 107.697 99.1602 107.89C99.5402 108.077 99.8335 108.357 100.04 108.73L99.3102 109.2C99.1368 108.94 98.9235 108.75 98.6702 108.63C98.4235 108.504 98.1568 108.44 97.8702 108.44C97.5235 108.44 97.2135 108.517 96.9402 108.67C96.6668 108.824 96.4502 109.04 96.2902 109.32C96.1302 109.594 96.0502 109.92 96.0502 110.3C96.0502 110.68 96.1302 111.01 96.2902 111.29C96.4502 111.57 96.6668 111.787 96.9402 111.94C97.2135 112.094 97.5235 112.17 97.8702 112.17C98.1568 112.17 98.4235 112.11 98.6702 111.99C98.9235 111.864 99.1368 111.67 99.3102 111.41L100.04 111.87C99.8335 112.237 99.5402 112.52 99.1602 112.72C98.7868 112.914 98.3602 113.01 97.8802 113.01ZM101.215 112.95V107.65H102.175V112.95H101.215ZM101.695 106.63C101.508 106.63 101.351 106.57 101.225 106.45C101.105 106.33 101.045 106.184 101.045 106.01C101.045 105.83 101.105 105.68 101.225 105.56C101.351 105.44 101.508 105.38 101.695 105.38C101.881 105.38 102.035 105.44 102.155 105.56C102.281 105.674 102.345 105.817 102.345 105.99C102.345 106.17 102.285 106.324 102.165 106.45C102.045 106.57 101.888 106.63 101.695 106.63ZM104.008 112.95V105.53H104.968V112.95H104.008ZM107.031 113.01C106.844 113.01 106.684 112.947 106.551 112.82C106.417 112.687 106.351 112.52 106.351 112.32C106.351 112.12 106.417 111.957 106.551 111.83C106.684 111.704 106.844 111.64 107.031 111.64C107.211 111.64 107.364 111.704 107.491 111.83C107.624 111.957 107.691 112.12 107.691 112.32C107.691 112.52 107.624 112.687 107.491 112.82C107.364 112.947 107.211 113.01 107.031 113.01ZM111.259 113.01C110.719 113.01 110.236 112.894 109.809 112.66C109.389 112.427 109.059 112.107 108.819 111.7C108.579 111.294 108.459 110.827 108.459 110.3C108.459 109.774 108.579 109.307 108.819 108.9C109.059 108.494 109.389 108.177 109.809 107.95C110.236 107.717 110.719 107.6 111.259 107.6C111.739 107.6 112.166 107.697 112.539 107.89C112.919 108.077 113.212 108.357 113.419 108.73L112.689 109.2C112.516 108.94 112.302 108.75 112.049 108.63C111.802 108.504 111.536 108.44 111.249 108.44C110.902 108.44 110.592 108.517 110.319 108.67C110.046 108.824 109.829 109.04 109.669 109.32C109.509 109.594 109.429 109.92 109.429 110.3C109.429 110.68 109.509 111.01 109.669 111.29C109.829 111.57 110.046 111.787 110.319 111.94C110.592 112.094 110.902 112.17 111.249 112.17C111.536 112.17 111.802 112.11 112.049 111.99C112.302 111.864 112.516 111.67 112.689 111.41L113.419 111.87C113.212 112.237 112.919 112.52 112.539 112.72C112.166 112.914 111.739 113.01 111.259 113.01ZM116.854 113.01C116.32 113.01 115.847 112.894 115.434 112.66C115.02 112.427 114.694 112.107 114.454 111.7C114.214 111.287 114.094 110.82 114.094 110.3C114.094 109.774 114.214 109.307 114.454 108.9C114.694 108.494 115.02 108.177 115.434 107.95C115.847 107.717 116.32 107.6 116.854 107.6C117.38 107.6 117.85 107.717 118.264 107.95C118.684 108.177 119.01 108.494 119.244 108.9C119.484 109.3 119.604 109.767 119.604 110.3C119.604 110.827 119.484 111.294 119.244 111.7C119.01 112.107 118.684 112.427 118.264 112.66C117.85 112.894 117.38 113.01 116.854 113.01ZM116.854 112.17C117.194 112.17 117.497 112.094 117.764 111.94C118.037 111.787 118.25 111.57 118.404 111.29C118.557 111.004 118.634 110.674 118.634 110.3C118.634 109.92 118.557 109.594 118.404 109.32C118.25 109.04 118.037 108.824 117.764 108.67C117.497 108.517 117.194 108.44 116.854 108.44C116.514 108.44 116.21 108.517 115.944 108.67C115.677 108.824 115.464 109.04 115.304 109.32C115.144 109.594 115.064 109.92 115.064 110.3C115.064 110.674 115.144 111.004 115.304 111.29C115.464 111.57 115.677 111.787 115.944 111.94C116.21 112.094 116.514 112.17 116.854 112.17ZM127.561 107.6C127.988 107.6 128.365 107.684 128.691 107.85C129.018 108.017 129.271 108.27 129.451 108.61C129.638 108.95 129.731 109.38 129.731 109.9V112.95H128.771V110.01C128.771 109.497 128.651 109.11 128.411 108.85C128.171 108.59 127.835 108.46 127.401 108.46C127.081 108.46 126.801 108.527 126.561 108.66C126.321 108.794 126.135 108.99 126.001 109.25C125.875 109.51 125.811 109.834 125.811 110.22V112.95H124.851V110.01C124.851 109.497 124.731 109.11 124.491 108.85C124.258 108.59 123.921 108.46 123.481 108.46C123.168 108.46 122.891 108.527 122.651 108.66C122.411 108.794 122.225 108.99 122.091 109.25C121.958 109.51 121.891 109.834 121.891 110.22V112.95H120.931V107.65H121.851V109.06L121.701 108.7C121.868 108.354 122.125 108.084 122.471 107.89C122.818 107.697 123.221 107.6 123.681 107.6C124.188 107.6 124.625 107.727 124.991 107.98C125.358 108.227 125.598 108.604 125.711 109.11L125.321 108.95C125.481 108.544 125.761 108.217 126.161 107.97C126.561 107.724 127.028 107.6 127.561 107.6ZM131.728 113.01C131.541 113.01 131.381 112.947 131.248 112.82C131.115 112.687 131.048 112.52 131.048 112.32C131.048 112.12 131.115 111.957 131.248 111.83C131.381 111.704 131.541 111.64 131.728 111.64C131.908 111.64 132.061 111.704 132.188 111.83C132.321 111.957 132.388 112.12 132.388 112.32C132.388 112.52 132.321 112.687 132.188 112.82C132.061 112.947 131.908 113.01 131.728 113.01ZM136.574 113.01C136.12 113.01 135.71 112.91 135.344 112.71C134.984 112.504 134.697 112.2 134.484 111.8C134.277 111.4 134.174 110.9 134.174 110.3C134.174 109.7 134.28 109.2 134.494 108.8C134.714 108.4 135.004 108.1 135.364 107.9C135.73 107.7 136.134 107.6 136.574 107.6C137.094 107.6 137.554 107.714 137.954 107.94C138.354 108.167 138.67 108.484 138.904 108.89C139.137 109.29 139.254 109.76 139.254 110.3C139.254 110.84 139.137 111.314 138.904 111.72C138.67 112.127 138.354 112.444 137.954 112.67C137.554 112.897 137.094 113.01 136.574 113.01ZM133.764 112.95V105.53H134.724V109.06L134.624 110.29L134.684 111.52V112.95H133.764ZM136.494 112.17C136.834 112.17 137.137 112.094 137.404 111.94C137.677 111.787 137.89 111.57 138.044 111.29C138.204 111.004 138.284 110.674 138.284 110.3C138.284 109.92 138.204 109.594 138.044 109.32C137.89 109.04 137.677 108.824 137.404 108.67C137.137 108.517 136.834 108.44 136.494 108.44C136.16 108.44 135.857 108.517 135.584 108.67C135.317 108.824 135.104 109.04 134.944 109.32C134.79 109.594 134.714 109.92 134.714 110.3C134.714 110.674 134.79 111.004 134.944 111.29C135.104 111.57 135.317 111.787 135.584 111.94C135.857 112.094 136.16 112.17 136.494 112.17ZM140.58 112.95V107.65H141.5V109.09L141.41 108.73C141.557 108.364 141.803 108.084 142.15 107.89C142.497 107.697 142.923 107.6 143.43 107.6V108.53C143.39 108.524 143.35 108.52 143.31 108.52C143.277 108.52 143.243 108.52 143.21 108.52C142.697 108.52 142.29 108.674 141.99 108.98C141.69 109.287 141.54 109.73 141.54 110.31V112.95H140.58Z" fill="white"/>
<path d="M30.5171 67.4787C30.5171 67.4787 30.5171 67.3799 30.5171 67.3404C30.5171 66.7477 30.0396 66.2736 29.4429 66.2736H13.0517C13.0517 66.2736 12.8726 66.2736 12.7931 66.2736H12.7533C9.01355 66.2736 5.45285 69.2765 4.75662 72.9906V73.0696C4.75662 73.0696 4.71683 73.1882 4.71683 73.2277L1.59375 90.8698H9.96838C10.5055 90.8698 10.963 90.4746 11.0426 89.961L11.8184 85.6147L12.0173 84.5281C12.0968 84.0342 12.5544 83.6391 13.0915 83.6391H20.7898C21.307 83.6391 21.7446 83.2637 21.844 82.7698L22.401 79.8459C22.401 79.8459 22.401 79.7274 22.401 79.6681C22.401 79.0754 21.9236 78.6013 21.3268 78.6013H13.0915L13.7678 74.5908C14.106 72.7338 15.8764 71.2126 17.7661 71.2126H28.9456C29.4827 71.2126 29.9402 70.8174 30.0197 70.3038L30.5171 67.4984V67.4787Z" fill="white"/>
<path d="M121.647 72.4276C122.184 72.4276 122.621 72.0516 122.72 71.5371L123.436 67.5004C123.436 67.5004 123.436 67.4015 123.436 67.3421C123.436 66.7485 122.959 66.2736 122.363 66.2736H98.4166C96.8864 66.2736 95.6146 67.3817 95.3761 68.846L94.7402 72.4276H103.683C104.279 72.4276 104.756 72.9025 104.756 73.4961C104.756 73.5555 104.756 73.6148 104.756 73.6544L101.696 90.8698H110.062C110.598 90.8698 111.035 90.4938 111.135 89.9793L114.076 73.318C114.155 72.8035 114.593 72.4078 115.149 72.4078H121.667L121.647 72.4276Z" fill="white"/>
<path d="M57.4842 71.1557H37.6487L37.25 66.1918H57.5241L57.4842 71.1557Z" fill="white"/>
<path d="M53.6096 84.7722H32.7773L33.5947 80.1272H53.191L53.6096 84.7722Z" fill="white"/>
<path d="M50.4903 91.011H57.4875L54.6966 83.1166L46.9219 83.0568L49.4736 90.3133C49.6331 90.7319 50.0318 91.011 50.4903 91.011Z" fill="white"/>
<path d="M46.8027 84.1731V84.7715C47.2814 84.7715 47.6804 85.0907 47.8399 85.5095H48.2389V84.1532H46.8227L46.8027 84.1731Z" fill="white"/>
<path d="M38.5798 91.0116C39.1181 91.0116 39.5766 90.6128 39.6563 90.0945L43.8626 66.1919H37.1644C35.6294 66.1919 34.3535 67.3083 34.1143 68.7835L30.207 90.9916H38.5997L38.5798 91.0116Z" fill="white"/>
<path d="M61.4432 70.0792C61.4432 70.2586 61.4432 70.458 61.4033 70.6374L59.4098 81.7016C59.051 83.4359 57.516 84.7517 55.6819 84.7916H49.4023L52.2929 68.7834C52.5322 67.3082 53.808 66.1918 55.343 66.1918H57.6156C59.7288 66.2316 61.4432 67.9461 61.4432 70.0792Z" fill="white"/>
<path d="M43.8975 71.1553V70.1785H41.8242V72.0325H42.8409C42.9406 71.5341 43.3792 71.1553 43.8975 71.1553Z" fill="white"/>
<path d="M41.4776 84.7915V83.8545H39.4043V85.7085H40.421C40.5007 85.1902 40.9592 84.8114 41.4975 84.8114L41.4776 84.7915Z" fill="white"/>
<path d="M52.1737 77.2156C52.1737 77.2156 49.9011 81.9005 49.9011 82.0001C49.9011 82.0998 47.0703 80.9635 47.0703 80.9635L47.17 80.1461C49.004 80.0664 50.5191 78.7108 50.8181 76.9365L52.1937 77.2356L52.1737 77.2156Z" fill="white"/>
<path d="M52.2731 70.9362L51.8941 72.0333H51.6946C51.7744 71.5545 51.4553 71.1556 50.9766 71.1556L51.0364 70.8165L52.2731 70.9362Z" fill="white"/>
<path d="M80.5711 65.1547C73.3128 65.1547 66.6709 69.1788 65.2988 74.2587C64.9607 75.434 64.5829 77.2468 64.3641 78.5417C64.1454 79.7768 63.9068 81.5299 63.8073 82.6654C63.7875 82.9044 63.7676 83.1236 63.7676 83.3427C63.7676 83.4025 63.7676 83.4821 63.7676 83.5419C63.8272 88.323 68.918 92.0084 75.8582 92.0084C83.1961 92.0084 89.9175 87.8847 91.1902 82.7052C91.5084 81.5498 91.8862 79.7967 92.1049 78.5218C92.3436 77.1472 92.6021 75.2746 92.6816 74.0395C92.9402 69.0393 87.7499 65.1348 80.591 65.1348L80.5711 65.1547ZM83.6733 73.7208C83.6733 73.7208 83.1364 77.5058 82.9376 78.5616C82.7387 79.717 81.7245 84.2192 81.7245 84.2192C80.949 86.3508 78.8013 87.9445 76.5542 87.9445C74.0486 87.9445 72.3782 85.9324 72.756 83.4423C72.756 83.4423 73.2929 79.6174 73.4918 78.5616C73.7105 77.3066 74.2872 74.4379 74.6054 73.2825C75.2815 71.0115 77.5286 69.2385 79.8751 69.2385C82.3609 69.2385 84.0512 71.2306 83.6733 73.7208Z" fill="white"/>
<path d="M147.91 67.0644C147.81 66.6492 147.453 66.3329 147.036 66.2736H133.371C132.239 66.2736 131.246 66.9063 130.71 67.8355C130.71 67.8751 130.67 67.8949 130.65 67.9344L118.197 90.8698H126.777C127.115 90.8302 127.413 90.6325 127.592 90.3557L127.651 90.2371L129.498 86.8561C129.677 86.5002 130.035 86.2629 130.452 86.2629H141.514C142.031 86.2629 142.468 86.6188 142.567 87.1131L143.123 90.0591C143.242 90.5336 143.659 90.8698 144.176 90.8698H152.359L147.89 67.0842L147.91 67.0644ZM137.721 71.6911C137.9 71.3352 138.257 71.0979 138.674 71.0979C139.171 71.0979 139.588 71.434 139.707 71.8888L141.733 82.7238H131.723L137.701 71.6911H137.721Z" fill="white"/>
<path d="M121.647 72.4276C122.184 72.4276 122.621 72.0516 122.72 71.5371L123.436 67.5004C123.436 67.5004 123.436 67.4015 123.436 67.3421C123.436 66.7485 122.959 66.2736 122.363 66.2736H98.4166C96.8864 66.2736 95.6146 67.3817 95.3761 68.846L94.7402 72.4276H103.683C104.279 72.4276 104.756 72.9025 104.756 73.4961C104.756 73.5555 104.756 73.6148 104.756 73.6544L101.696 90.8698H110.062C110.598 90.8698 111.035 90.4938 111.135 89.9793L114.076 73.318C114.155 72.8035 114.593 72.4078 115.149 72.4078H121.667L121.647 72.4276Z" fill="white"/>
<path d="M80.5711 65.1547C73.3128 65.1547 66.6709 69.1788 65.2988 74.2587C64.9607 75.434 64.5829 77.2468 64.3641 78.5417C64.1454 79.7768 63.9068 81.5299 63.8073 82.6654C63.7875 82.9044 63.7676 83.1236 63.7676 83.3427C63.7676 83.4025 63.7676 83.4821 63.7676 83.5419C63.8272 88.323 68.918 92.0084 75.8582 92.0084C83.1961 92.0084 89.9175 87.8847 91.1902 82.7052C91.5084 81.5498 91.8862 79.7967 92.1049 78.5218C92.3436 77.1472 92.6021 75.2746 92.6816 74.0395C92.9402 69.0393 87.7499 65.1348 80.591 65.1348L80.5711 65.1547ZM83.6733 73.7208C83.6733 73.7208 83.1364 77.5058 82.9376 78.5616C82.7387 79.717 81.7245 84.2192 81.7245 84.2192C80.949 86.3508 78.8013 87.9445 76.5542 87.9445C74.0486 87.9445 72.3782 85.9324 72.756 83.4423C72.756 83.4423 73.2929 79.6174 73.4918 78.5616C73.7105 77.3066 74.2872 74.4379 74.6054 73.2825C75.2815 71.0115 77.5286 69.2385 79.8751 69.2385C82.3609 69.2385 84.0512 71.2306 83.6733 73.7208Z" fill="white"/>
<path d="M147.91 67.0644C147.81 66.6492 147.453 66.3329 147.036 66.2736H133.371C132.239 66.2736 131.246 66.9063 130.71 67.8355C130.71 67.8751 130.67 67.8949 130.65 67.9344L118.197 90.8698H126.777C127.115 90.8302 127.413 90.6325 127.592 90.3557L127.651 90.2371L129.498 86.8561C129.677 86.5002 130.035 86.2629 130.452 86.2629H141.514C142.031 86.2629 142.468 86.6188 142.567 87.1131L143.123 90.0591C143.242 90.5336 143.659 90.8698 144.176 90.8698H152.359L147.89 67.0842L147.91 67.0644ZM137.721 71.6911C137.9 71.3352 138.257 71.0979 138.674 71.0979C139.171 71.0979 139.588 71.434 139.707 71.8888L141.733 82.7238H131.723L137.701 71.6911H137.721Z" fill="white"/>
<path d="M19.6875 50.4054H31.8704L29.8674 44.7734L25.3666 44.4199L19.6875 50.3819V50.4054Z" fill="white"/>
<path d="M67.4507 50.4057H55.9512C55.9512 50.4057 59.4387 44.915 59.7451 44.915C60.0514 44.915 66.0133 45.0329 66.1782 45.1978C66.3432 45.3628 67.4507 50.4057 67.4507 50.4057Z" fill="white"/>
<path d="M93.3223 50.4064H106.141V46.3532L100.156 43.8318C100.156 43.8318 94.8775 45.3635 94.9482 45.552C94.9954 45.717 93.3458 50.4064 93.3458 50.4064H93.3223Z" fill="white"/>
<path d="M115.178 46.0698C115.178 45.8342 119.985 44.868 120.032 44.7031C120.08 44.5381 124.675 45.6692 124.675 45.6692L125.759 50.4058H112.939L115.296 46.3526L115.178 46.0698Z" fill="white"/>
<path d="M146.713 0.0241699V0.0477349L146.006 10.11H141.67H60.7018H56.413L56.248 0.0241699H146.713Z" fill="white"/>
<path d="M139.793 37.7743H48.9277L48.5742 28.3247H143.068L139.793 37.7743Z" fill="white"/>
<path d="M137.488 50.4051H146.301L140.646 34.3573L130.254 34.2395L135.415 48.9912C135.721 49.8159 136.522 50.4051 137.465 50.4051H137.488Z" fill="white"/>
<path d="M130.078 36.5255V37.7745C131.044 37.7745 131.728 38.4107 132.01 39.2826H132.812V36.5491H130.078V36.5255Z" fill="white"/>
<path d="M60.6533 0.0238091L60.3469 1.72049L59.2158 8.13015L59.0273 9.11988L58.8623 10.086L58.556 11.8534L55.634 28.3018L54.2908 35.819L53.9373 37.7513L53.631 39.4244L53.3247 41.1211C53.1597 42.1815 52.2407 42.9592 51.1567 42.9592H42.7441L49.4601 5.27879C49.4601 5.27879 49.4836 5.1374 49.5072 5.06671C50.0727 2.16822 52.6177 0.000244141 55.6811 0.000244141H60.6768L60.6533 0.0238091Z" fill="white"/>
<path d="M154.013 7.91783C154.013 8.29487 153.99 8.67191 153.943 9.04894L149.913 31.5299C149.913 31.5299 149.913 31.5299 149.913 31.5535C149.159 35.0882 146.072 37.7511 142.325 37.7982H138.508L144.375 5.27855C144.87 2.2858 142.043 0 145.177 0H146.261C150.573 0.0706949 154.037 3.58187 154.037 7.89426L154.013 7.91783Z" fill="white"/>
<path d="M60.7122 10.1095V8.13H56.4941V11.8768H58.5678C58.7563 10.8635 59.6518 10.1095 60.7358 10.1095H60.7122Z" fill="white"/>
<path d="M55.7435 37.775V35.8662H51.5254V39.613H53.5755C53.764 38.5762 54.6595 37.775 55.7435 37.775Z" fill="white"/>
<path d="M144.122 22.3876C144.122 22.3876 139.527 31.9314 139.48 32.1199C139.433 32.3084 133.73 29.9991 133.73 29.9991L133.919 28.326C137.642 28.161 140.706 25.4039 141.342 21.7985L144.122 22.3876Z" fill="white"/>
<path d="M144.325 9.66192L143.547 11.877H143.147C143.312 10.8873 142.652 10.1097 141.686 10.1097L141.803 9.42627L144.325 9.63835V9.66192Z" fill="white"/>
<path d="M35.5396 48.6385C35.4925 49.1569 35.4689 49.369 35.3982 49.6989C35.3982 49.6989 35.3982 49.7225 35.3982 49.7461C35.304 50.0995 34.9976 50.3823 34.6206 50.4059H30.1433C30.1433 50.4059 30.1433 50.4059 30.1433 50.3823C30.3318 49.7461 30.3554 49.6518 30.5203 48.827C30.7795 47.2482 29.6956 46.2584 27.4334 46.2584C25.1712 46.2584 23.8044 47.1068 23.3567 48.5442C23.2153 49.0627 23.1682 49.1569 23.0268 49.6989C23.0268 49.7225 23.0268 49.7696 23.0032 49.7932C22.8854 50.1231 22.6026 50.3587 22.2491 50.3823H22.1313C22.1313 50.3823 22.1313 50.3823 22.1078 50.3823H17.7012C17.7012 50.3823 17.7012 50.3823 17.7012 50.3587C17.7719 49.9346 17.819 49.7225 17.8661 49.534C17.9133 49.3219 17.9839 49.1334 18.0782 48.7563C18.9972 45.5044 23.2389 42.9594 27.8575 42.9594C32.4762 42.9594 35.7045 45.4572 35.516 48.6385H35.5396Z" fill="white"/>
<path d="M71.858 48.6385C71.8108 49.1569 71.7873 49.369 71.7166 49.6989C71.7166 49.6989 71.7166 49.7225 71.7166 49.7461C71.6223 50.0995 71.316 50.3823 70.9389 50.4059H66.4617C66.4617 50.4059 66.4617 50.4059 66.4617 50.3823C66.6502 49.7461 66.6737 49.6518 66.8387 48.827C67.0979 47.2482 66.0139 46.2584 63.7517 46.2584C61.4895 46.2584 60.1228 47.1068 59.675 48.5442C59.5337 49.0627 59.4865 49.1569 59.3451 49.6989C59.3451 49.7225 59.3451 49.7696 59.3216 49.7932C59.2037 50.1231 58.921 50.3587 58.5675 50.3823H58.4497H58.4261H54.0195C54.0195 50.3823 54.0195 50.3823 54.0195 50.3587C54.0902 49.9346 54.1374 49.7225 54.1845 49.534C54.2316 49.3219 54.3023 49.1334 54.3966 48.7563C55.3156 45.5044 59.5572 42.9594 64.1994 42.9594C68.8417 42.9594 72.0465 45.4572 71.858 48.6385Z" fill="white"/>
<path d="M128.688 48.6385C128.641 49.1569 128.617 49.369 128.547 49.6989C128.547 49.6989 128.547 49.7225 128.547 49.7461C128.452 50.0995 128.146 50.3823 127.769 50.4059H123.292C123.292 50.4059 123.292 50.4059 123.292 50.3823C123.48 49.7461 123.504 49.6518 123.669 48.827C123.928 47.2482 122.844 46.2584 120.582 46.2584C118.32 46.2584 116.953 47.1068 116.505 48.5442C116.364 49.0627 116.317 49.1569 116.175 49.6989C116.175 49.7225 116.175 49.7696 116.152 49.7932C116.034 50.1231 115.751 50.3587 115.398 50.3823H115.28C115.28 50.3823 115.28 50.3823 115.256 50.3823H110.85C110.85 50.3823 110.85 50.3823 110.85 50.3587C110.92 49.9346 110.967 49.7225 111.015 49.534C111.062 49.3219 111.132 49.1334 111.227 48.7563C112.146 45.5044 116.387 42.9594 121.006 42.9594C125.625 42.9594 128.853 45.4572 128.664 48.6385H128.688Z" fill="white"/>
<path d="M109.036 48.6385C108.989 49.1569 108.965 49.369 108.894 49.6989C108.894 49.6989 108.894 49.7225 108.894 49.7461C108.8 50.0995 108.494 50.3823 108.117 50.4059H103.639C103.639 50.4059 103.639 50.4059 103.639 50.3823C103.828 49.7461 103.851 49.6518 104.016 48.827C104.276 47.2482 103.192 46.2584 100.929 46.2584C98.6673 46.2584 97.3005 47.1068 96.8528 48.5442C96.7114 49.0627 96.6643 49.1569 96.5229 49.6989C96.5229 49.7225 96.5229 49.7696 96.4993 49.7932C96.405 50.1231 96.0987 50.3587 95.7452 50.3823H95.6274H95.6038H91.1973C91.1973 50.3823 91.1973 50.3823 91.1973 50.3587C91.268 49.9346 91.3151 49.7225 91.3622 49.534C91.4093 49.3219 91.48 49.1334 91.5743 48.7563C92.4933 45.5044 96.735 42.9594 101.354 42.9594C105.972 42.9594 109.201 45.4572 109.012 48.6385H109.036Z" fill="white"/>
<path d="M58.2282 0.0247803H55.6597C52.5963 0.0247803 50.0513 2.19276 49.4857 5.09125C48.7788 7.75409 46.5166 9.78067 43.7124 10.1106H24.2716C20.4541 10.1106 16.8251 13.1976 16.1418 17.0387L14.7515 25.2393H31.5059C32.7077 25.2393 33.6739 26.229 33.6739 27.4544C33.6739 27.5958 33.6739 27.7136 33.6267 27.8314L32.5192 33.8169C32.3307 34.8302 31.4352 35.5843 30.3748 35.6079H14.7043C13.6204 35.6079 12.7249 36.4091 12.5364 37.4459L12.1358 39.6846L10.557 48.6157C10.392 49.6526 9.47298 50.4538 8.38901 50.4538H0L6.36245 14.3051C6.36245 14.3051 6.38602 14.0931 6.40958 13.9752V13.8103C7.82346 6.1988 15.0814 0.0483452 22.6927 0.0483452H22.7634C22.9284 0.0483452 23.1169 0.0483452 23.2819 0.0483452H58.134H58.1811L58.2282 0.0247803Z" fill="white"/>
<path d="M57.8287 0.0246582H55.2601C52.1967 0.0246582 49.6517 2.19263 49.0862 5.09112C48.3793 7.75396 46.1171 9.78055 43.3129 10.1105H23.872C23.118 10.1105 22.3639 10.2283 21.6334 10.4639C21.3978 7.14128 21.1857 3.30019 21.1621 0.095353C21.5391 0.0717881 21.9397 0.0482231 22.3403 0.0482231H22.411C22.576 0.0482231 22.7645 0.0482231 22.9295 0.0482231H57.7815H57.8287V0.0246582Z" fill="white"/>
</svg>
