<svg width="108" height="87" viewBox="0 0 108 87" fill="none" xmlns="http://www.w3.org/2000/svg">
<path d="M100.98 68.2875H91.9846L85.1426 86.0318H91.279L92.5011 82.5341H100.299C100.821 83.9352 101.235 85.1011 101.547 86.0318H107.878L100.985 68.2875H100.98ZM93.892 78.7296C95.0017 75.733 95.8403 73.4881 96.408 72.0051L96.996 73.5955C97.6455 75.3086 98.2847 77.0165 98.9034 78.7296H93.892Z" fill="white"/>
<path d="M0.194319 77.1648C0.194319 79.921 0.127841 82.8767 0 86.0369H5.7682V79.9517C6.46877 79.9364 7.50173 79.9262 8.87219 79.9262C12.1654 79.9262 15.2949 79.9824 18.2608 80.0949V75.3034C15.2949 75.4006 12.3802 75.4517 9.51139 75.4517C7.84946 75.4517 6.60172 75.4415 5.77331 75.4262V72.8591H19.0739V68.2875H0C0.127841 71.4478 0.194319 74.4086 0.194319 77.1597V77.1648Z" fill="white"/>
<path d="M39.6096 77.7989C40.3 76.8222 40.6477 75.6256 40.6477 74.204C40.6477 72.3938 39.9982 70.962 38.6943 69.9034C37.3903 68.8449 35.0943 68.3131 31.8011 68.3131H26.7897V68.2875H21.0215C21.1493 71.4478 21.2158 74.4086 21.2158 77.1597C21.2158 79.9108 21.1493 82.8716 21.0215 86.0318H26.7897V80.3608H30.3846C31.934 82.8051 33.0641 84.6972 33.7852 86.0318H40.4329L36.4749 80.5296C36.3931 80.3813 36.2551 80.1818 36.0607 79.921C37.738 79.4813 38.9244 78.7705 39.6198 77.7938L39.6096 77.7989ZM34.7107 75.2318C34.4346 75.4262 33.9386 75.5693 33.2329 75.6614C32.5221 75.7534 31.4789 75.7943 30.0931 75.7943H26.7948V73.0074H30.0931C31.4942 73.0074 32.5528 73.0483 33.2687 73.1301C33.9846 73.212 34.4755 73.35 34.7363 73.5443C34.9971 73.7387 35.1249 74.0148 35.1249 74.3779C35.1249 74.7409 34.9869 75.0375 34.7107 75.2318Z" fill="white"/>
<path d="M61.7571 70.2205C60.0031 68.5893 57.2468 67.7762 53.4832 67.7762C49.7195 67.7762 46.9837 68.5893 45.2349 70.2205C43.4809 71.8517 42.6064 74.1171 42.6064 77.0165C42.6064 79.9159 43.486 82.2273 45.2451 83.8483C47.0042 85.4693 49.7502 86.2824 53.4832 86.2824C57.2161 86.2824 60.0287 85.4745 61.7724 83.8637C63.5162 82.2529 64.3855 79.9671 64.3855 77.0216C64.3855 74.0762 63.5111 71.8569 61.7571 70.2256V70.2205ZM57.3951 80.2534C56.5974 80.9438 55.2934 81.2915 53.4832 81.2915C51.6729 81.2915 50.3945 80.9438 49.5968 80.2381C48.7991 79.5375 48.4002 78.4637 48.4002 77.0114C48.4002 75.5591 48.7991 74.5108 49.5968 73.8103C50.3945 73.1097 51.6883 72.7569 53.4832 72.7569C55.2781 72.7569 56.5974 73.1097 57.3951 73.8103C58.1929 74.5108 58.5917 75.5796 58.5917 77.0114C58.5917 78.4432 58.1929 79.558 57.3951 80.2483V80.2534Z" fill="white"/>
<path d="M86.1197 68.2875H65.123V73.4216C67.6492 73.3398 70.1242 73.2938 72.5532 73.2733V86.0318H78.664V73.2733C81.0776 73.2887 83.5629 73.3398 86.1197 73.4216V68.2875Z" fill="white"/>
<path d="M88.9411 49.3517C84.3184 49.3517 80.5752 53.1 80.5752 57.7176C80.5752 57.9529 80.5854 58.1881 80.6059 58.4182H97.2764C97.2968 58.1881 97.3071 57.9529 97.3071 57.7176C97.3071 53.0949 93.5587 49.3517 88.9411 49.3517Z" fill="white"/>
<path d="M29.6433 49.3517C25.0205 49.3517 21.2773 53.1 21.2773 57.7176C21.2773 57.9529 21.2876 58.1881 21.308 58.4182H37.9785C37.999 58.1881 38.0092 57.9529 38.0092 57.7176C38.0092 53.0949 34.2609 49.3517 29.6433 49.3517Z" fill="white"/>
<path d="M8.36593 49.3517C3.74319 49.3517 0 53.1 0 57.7176C0 57.9529 0.0102273 58.1881 0.0306819 58.4182H16.7012C16.7216 58.1881 16.7319 57.9529 16.7319 57.7176C16.7319 53.0949 12.9836 49.3517 8.36593 49.3517Z" fill="white"/>
<path d="M78.5762 43.6101H78.5883L78.5822 43.6041L78.5762 43.6101Z" fill="white"/>
<path d="M93.0173 14.9626L108 14.9217L107.985 4.20352C107.76 1.90751 106.211 0.281372 103.843 0.00012207L63.1689 0.0256902L63.2201 0.0768265L77.9627 14.8808L85.4798 22.4285L70.6962 22.5563L83.869 35.7648C84.9224 36.9001 86.2673 37.4932 87.8219 37.4677L93.1094 37.529L102.37 46.754V46.7642L107.888 52.2818V33.4739C107.888 33.433 107.888 33.3972 107.893 33.3563C107.975 31.633 108.021 29.9558 106.686 28.6262L93.0173 14.9677V14.9626Z" fill="white"/>
<path d="M74.6031 39.6102L63.8439 28.8051H14.804V14.8858H65.0763L50.3388 0.0818481H4.16763C1.86648 0.0818481 0 1.94321 0 4.24945V39.3341L0.194319 39.2267V39.4414C0.194319 41.7426 2.0608 43.609 4.36194 43.609H56.0968L43.8751 55.8869H43.8393L41.303 58.4232H62.5553C62.6013 58.4232 62.6422 58.4079 62.6883 58.4028C63.6138 58.2749 64.34 57.8658 65.1275 57.0783L78.5866 43.6142L74.6082 39.6153L74.6031 39.6102Z" fill="white"/>
</svg>
