<svg width="26" height="26" viewBox="0 0 26 26" fill="none" xmlns="http://www.w3.org/2000/svg">
<path d="M24 13C24 6.92487 19.0751 2 13 2C6.92487 2 2 6.92487 2 13C2 19.0751 6.92487 24 13 24C19.0751 24 24 19.0751 24 13ZM26 13C26 20.1797 20.1797 26 13 26C5.8203 26 0 20.1797 0 13C0 5.8203 5.8203 0 13 0C20.1797 0 26 5.8203 26 13Z" fill="white"/>
<path d="M17.7988 12C18.3511 12 18.7988 12.4477 18.7988 13C18.7988 13.5523 18.3511 14 17.7988 14H8.19922C7.64693 14 7.19922 13.5523 7.19922 13C7.19922 12.4477 7.64693 12 8.19922 12H17.7988Z" fill="white"/>
<path d="M12 17.7996V8.19995C12 7.64767 12.4477 7.19995 13 7.19995C13.5523 7.19995 14 7.64767 14 8.19995V17.7996C14 18.3518 13.5523 18.7996 13 18.7996C12.4477 18.7996 12 18.3518 12 17.7996Z" fill="white"/>
</svg>
