<svg width="31" height="30" viewBox="0 0 31 30" fill="none" xmlns="http://www.w3.org/2000/svg">
<path d="M30.0456 14.2437V15.7694C29.9209 15.8501 30.0162 16.0335 29.9942 16.1802C29.8915 16.811 29.9942 17.2878 29.4881 17.4639C29.2533 17.5446 29.0113 17.4786 28.8206 17.2952C28.1897 16.6937 27.4855 16.2095 26.6933 15.8354C25.9011 15.4613 26.2605 15.4393 26.2679 15.1533C26.3632 8.91088 21.3972 3.86416 15.2135 3.7688C8.71439 3.66611 3.50629 9.02091 3.79237 15.4907C4.05644 21.557 9.07382 26.347 15.2428 26.2223C15.4996 26.2223 15.7416 26.3763 15.8663 26.6331C16.2404 27.4253 16.7246 28.1295 17.3261 28.7603C17.9276 29.3912 17.5755 29.2004 17.4948 29.4278C17.3261 29.912 16.8493 29.8459 16.2111 29.934C15.5729 30.022 15.881 29.8606 15.8003 29.9853H14.2159C14.1719 29.8753 14.0472 29.9486 13.9151 29.9413C6.57247 29.3325 0.53548 23.4789 0.0513474 16.1215C0.0513474 16.0115 0.102695 15.9088 0 15.8795V14.119C0.0733534 14.0383 0.0440121 13.9062 0.0513474 13.7889C0.638175 6.51956 6.4551 0.673288 13.7538 0.0717894L14.2599 0.0277773C14.8174 -0.0162347 15.3309 -0.00156403 15.8884 0.0277773C18.4264 0.18182 20.8617 0.966701 23.0036 2.33841C26.9867 4.89111 29.5834 9.16761 29.9795 13.8769C30.3757 18.5862 29.9649 14.1483 30.0309 14.2363L30.0456 14.2437Z" fill="white"/>
<path d="M30.0452 22.5032V23.6769C29.6784 27.0658 27.1624 29.6112 23.7661 30H22.5338C18.8735 29.5672 16.1814 26.567 16.2841 22.9067C16.3868 19.2904 19.3503 16.3489 22.9813 16.2682C26.6489 16.1802 29.6271 18.9016 30.0452 22.5032ZM28.1307 23.7429C27.7639 23.7282 27.5512 23.4201 27.5512 23.1194C27.5512 22.8113 27.7859 22.5252 28.116 22.5106L28.7175 22.4959C28.5928 21.4396 28.1967 20.4493 27.5292 19.6498C27.3164 19.8992 27.0817 20.0386 26.803 19.9872C26.5682 19.9432 26.3555 19.7451 26.3115 19.4737C26.2675 19.2023 26.3995 18.9823 26.6563 18.7695C25.8567 18.1094 24.8885 17.7133 23.8175 17.5812C23.7808 17.7499 23.8028 17.926 23.7955 18.1167C23.7808 18.4835 23.5167 18.7475 23.1646 18.7475C22.8566 18.7475 22.5631 18.5128 22.5558 18.168L22.5411 17.5812C21.4848 17.7059 20.5313 18.0947 19.6877 18.7622C19.9224 18.9896 20.0765 19.2097 20.0251 19.4884C19.9738 19.7671 19.7757 19.9432 19.5263 19.9872C19.2769 20.0312 19.0202 19.8772 18.8001 19.6498C18.1326 20.486 17.7438 21.4396 17.6191 22.4959L18.206 22.5106C18.5727 22.5179 18.8075 22.8407 18.7854 23.1707C18.7341 23.8309 18.0592 23.7429 17.6191 23.7722C17.6705 24.2197 17.7585 24.5938 17.9052 25.0046H28.4388C28.5928 24.5865 28.7028 24.183 28.7175 23.7649L28.138 23.7429H28.1307Z" fill="white"/>
<path d="M20.4371 15.476C19.6669 15.7694 18.9774 16.1288 18.3319 16.6056C17.6863 17.0824 17.8037 16.7744 17.5837 16.6203C17.3636 16.4663 17.2462 16.1875 17.3489 15.9088C17.9064 14.4417 17.0262 12.8573 15.4637 12.5639C14.4221 12.3731 13.3952 12.8646 12.867 13.7522C12.3389 14.6471 12.4269 15.7841 13.1018 16.591C13.7693 17.3905 14.8696 17.7059 15.8892 17.3392C16.9088 16.9724 16.5127 17.3465 16.6667 17.5959C16.8575 17.882 16.7107 18.1754 16.542 18.4395C16.2853 18.8356 15.9919 18.9603 15.5298 18.8356C14.6715 18.6009 13.7766 18.953 13.1678 19.5985C12.5589 20.244 12.0821 21.4176 11.9428 22.4886C11.8914 22.9067 12.0308 23.2441 12.4562 23.3688C13.1238 23.5669 13.8133 23.6622 14.5101 23.7136C15.207 23.7649 15.0823 23.985 15.119 24.3078C15.1557 24.6305 14.9356 24.9679 14.6422 24.9606C9.36807 24.7919 5.23093 20.5594 5.04755 15.3586C4.85683 10.0038 8.86193 5.4926 14.2021 5.05248C19.8136 4.59035 24.7429 8.83751 25.007 14.5077C25.0217 14.8598 24.6623 15.1312 24.3175 15.0946L23.5766 15.0212C23.3126 14.9919 23.1072 14.8085 23.0411 14.5811C22.8358 13.8842 23.7233 13.8842 23.5913 13.2461C23.2245 11.5002 22.337 9.93782 21.0386 8.71281C20.7965 8.48542 20.4004 8.48542 20.173 8.72748C19.3808 9.57838 18.5519 10.774 18.4125 11.955C18.3099 12.8279 18.7206 13.6202 19.5055 13.9943C20.2904 14.3684 20.7672 14.2363 20.8332 14.8011C20.8992 15.366 20.7379 15.3586 20.4371 15.4687V15.476ZM17.0848 10.2312C17.723 9.44635 17.9944 8.51476 18.1118 7.53182C18.1558 7.17973 18.0531 6.8423 17.679 6.72494C15.9479 6.17478 14.0994 6.17478 12.3682 6.72494C11.9941 6.8423 11.8988 7.17973 11.9354 7.53182C12.0528 8.52209 12.3462 9.47569 12.9771 10.2459C13.5125 10.8987 14.2314 11.2949 15.053 11.2875C15.8745 11.2802 16.5494 10.8914 17.0848 10.2312ZM11.6274 11.8743C11.4513 10.6934 10.6371 9.54904 9.87421 8.72748C9.11133 7.90593 9.25804 8.48542 9.01597 8.71281C7.71762 9.93048 6.8227 11.5002 6.46327 13.2461C6.10384 14.9919 6.5733 13.8109 6.83004 13.9282C7.93768 14.4417 9.20669 14.5371 10.3437 14.097C11.4806 13.6568 11.7814 12.872 11.6274 11.8743ZM9.85954 21.3956C10.6444 20.5741 11.4586 19.3784 11.6274 18.2268C11.7741 17.2585 11.2826 16.3782 10.3583 16.0188C9.43409 15.6594 7.93034 15.6667 6.8227 16.1875C5.71507 16.7083 6.39725 16.591 6.46327 16.8844C6.83004 18.6302 7.71762 20.1926 9.02331 21.4103C9.25804 21.6304 9.63948 21.623 9.85954 21.3956Z" fill="white"/>
<path d="M22.8273 21.9237C23.6195 21.733 24.331 22.2685 24.3971 23.0094C24.4704 23.7869 23.8176 24.4324 23.04 24.3664C22.2625 24.3004 21.7563 23.5815 21.9544 22.8113L20.8394 21.6817C20.5973 21.4396 20.6194 21.0655 20.8394 20.8308C21.0595 20.596 21.4629 20.552 21.7197 20.8088L22.8346 21.9237H22.8273Z" fill="white"/>
</svg>
