<svg width="25" height="24" viewBox="0 0 25 24" fill="none" xmlns="http://www.w3.org/2000/svg">
<path d="M24.0501 10.9729V11.2985H22.6347V12.7015H24.0501V13.0334C23.9687 13.0522 24.0188 13.1461 24.0125 13.2213C23.9186 14.1232 23.7307 14.9875 23.4363 15.8643L22.1148 15.3445L21.5887 16.6409L22.8977 17.1795C22.4217 18.2004 21.7954 19.1148 21.0313 19.9854L20.023 18.9958L19.0334 19.9729L20.023 20.9875C19.1962 21.7202 18.3194 22.309 17.3486 22.785L16.7975 21.4948L15.501 22.0271L16.0397 23.3424C15.119 23.6681 14.2046 23.8622 13.2526 23.9624C13.1775 23.9687 13.0772 23.9186 13.0647 24H12.739V22.5846H11.3299V24H10.9979C10.9791 23.9186 10.8852 23.9687 10.81 23.9624C9.90814 23.8622 9.03758 23.6806 8.16075 23.3862L8.68058 22.0647L7.38413 21.5386L6.83925 22.8413C5.81837 22.3653 4.8977 21.739 4.0334 20.9812L5.02296 19.9729L4.03967 18.9896L3.01879 19.9791C2.28601 19.1524 1.69102 18.2818 1.21503 17.3111L2.51148 16.7599L1.97912 15.4635L0.663883 16.0021C0.338205 15.0814 0.14405 14.167 0.0375783 13.2213C0.0313152 13.1461 0.0814196 13.0459 0 13.0334V12.7077H1.41545V11.3048H0V10.9729C0.137787 10.0084 0.275574 9.07516 0.620042 8.14196L1.94781 8.64927L2.46138 7.36535L1.1524 6.82672C1.62839 5.81211 2.2547 4.89144 3.01879 4.02714L4.02714 5.0167L5.0167 4.02714L4.02714 3.01879C4.84134 2.29228 5.70564 1.70981 6.6952 1.22129L7.2714 2.51775L8.55532 1.97286L8.0167 0.663883C9.10021 0.281837 10.1837 0.0751566 11.3173 0V1.41545C11.3236 1.41545 12.7328 1.41545 12.7328 1.41545V0C13.8351 0.0751566 14.8935 0.256785 15.9081 0.620042L15.382 1.92902L16.6785 2.45511L17.2234 1.1524C18.2443 1.62839 19.1649 2.2547 20.0292 3.01253L19.0334 4.02088L20.023 5.01044L21.0313 4.02088C21.7641 4.8476 22.3591 5.71816 22.8351 6.68894L21.5324 7.25261L22.0772 8.53654L23.3862 8.00418C23.762 8.99374 23.9123 9.9833 24.0501 10.9729ZM11.4175 4.67223C7.3215 5.0167 4.3215 8.63048 4.6785 12.6514C5.03549 16.6785 8.59916 19.6785 12.6388 19.3403C16.691 19.0021 19.7161 15.4384 19.3779 11.3925C19.0459 7.38413 15.501 4.32777 11.4175 4.66597V4.67223Z" fill="#00ACAD"/>
<path d="M9.01172 17.142L11.0222 14.3799C11.661 14.6117 12.2998 14.5929 12.9199 14.3486L14.9804 17.1733C13.1453 18.2129 10.9094 18.238 9.01172 17.142Z" fill="#00ACAD"/>
<path d="M16.1212 16.3274L14.0293 13.4839C14.3926 12.9641 14.5617 12.3816 14.5178 11.7365L17.8435 10.7219C18.2882 12.7762 17.6493 14.8681 16.1149 16.3274H16.1212Z" fill="#00ACAD"/>
<path d="M9.88309 13.5406L7.87891 16.2839C6.35699 14.812 5.72442 12.6763 6.22547 10.6033L9.36325 11.5615C9.26931 12.288 9.43215 12.9457 9.88309 13.5406Z" fill="#00ACAD"/>
<path d="M14.0416 10.4153C13.6595 9.96439 13.2274 9.61992 12.6387 9.45708V6.0813C14.6867 6.29424 16.4591 7.53433 17.3798 9.38193L14.0416 10.4153Z" fill="#00ACAD"/>
<path d="M11.2293 9.45718C10.722 9.62002 10.3149 9.86427 9.97042 10.2651L6.73242 9.27555C7.61551 7.55947 9.28775 6.37576 11.223 6.10645V9.45718H11.2293Z" fill="#00ACAD"/>
<path d="M11.6489 10.8098C12.3128 10.647 12.9329 11.0603 13.0832 11.6741C13.2398 12.3067 12.8515 12.9455 12.2126 13.1021C11.5738 13.2587 10.9663 12.8892 10.7909 12.2754C10.6155 11.6616 10.9663 10.9727 11.6427 10.8098H11.6489Z" fill="#00ACAD"/>
</svg>
