<svg width="13" height="13" viewBox="0 0 13 13" fill="none" xmlns="http://www.w3.org/2000/svg">
<path fill-rule="evenodd" clip-rule="evenodd" d="M7.25 0.75C7.25 0.551088 7.17098 0.360322 7.03033 0.21967C6.88968 0.0790177 6.69891 0 6.5 0C6.30109 0 6.11032 0.0790177 5.96967 0.21967C5.82902 0.360322 5.75 0.551088 5.75 0.75V5.75H0.75C0.551088 5.75 0.360322 5.82902 0.21967 5.96967C0.0790177 6.11032 0 6.30109 0 6.5C0 6.69891 0.0790177 6.88968 0.21967 7.03033C0.360322 7.17098 0.551088 7.25 0.75 7.25H6.25C6.51522 7.25 6.76957 7.14464 6.95711 6.95711C7.14464 6.76957 7.25 6.51522 7.25 6.25V0.75ZM5.75 9.5C5.75 9.23478 5.85536 8.98043 6.04289 8.79289C6.23043 8.60536 6.48478 8.5 6.75 8.5H9.5C9.69891 8.5 9.88968 8.57902 10.0303 8.71967C10.171 8.86032 10.25 9.05109 10.25 9.25C10.25 9.44891 10.171 9.63968 10.0303 9.78033C9.88968 9.92098 9.69891 10 9.5 10H7.25V12.25C7.25 12.4489 7.17098 12.6397 7.03033 12.7803C6.88968 12.921 6.69891 13 6.5 13C6.30109 13 6.11032 12.921 5.96967 12.7803C5.82902 12.6397 5.75 12.4489 5.75 12.25V9.5ZM11.5 11.5H9.25C9.05109 11.5 8.86032 11.579 8.71967 11.7197C8.57902 11.8603 8.5 12.0511 8.5 12.25C8.5 12.4489 8.57902 12.6397 8.71967 12.7803C8.86032 12.921 9.05109 13 9.25 13H12C12.2652 13 12.5196 12.8946 12.7071 12.7071C12.8946 12.5196 13 12.2652 13 12V6.75C13 6.48478 12.8946 6.23043 12.7071 6.04289C12.5196 5.85536 12.2652 5.75 12 5.75H9.25C9.05109 5.75 8.86032 5.82902 8.71967 5.96967C8.57902 6.11032 8.5 6.30109 8.5 6.5C8.5 6.69891 8.57902 6.88968 8.71967 7.03033C8.86032 7.17098 9.05109 7.25 9.25 7.25H11.5V11.5ZM1.5 3V1.5H3V3H1.5ZM0 1C0 0.734784 0.105357 0.48043 0.292893 0.292893C0.48043 0.105357 0.734784 0 1 0H3.5C3.76522 0 4.01957 0.105357 4.20711 0.292893C4.39464 0.48043 4.5 0.734784 4.5 1V3.5C4.5 3.76522 4.39464 4.01957 4.20711 4.20711C4.01957 4.39464 3.76522 4.5 3.5 4.5H1C0.734784 4.5 0.48043 4.39464 0.292893 4.20711C0.105357 4.01957 0 3.76522 0 3.5V1ZM1.5 10V11.5H3V10H1.5ZM1 8.5C0.734784 8.5 0.48043 8.60536 0.292893 8.79289C0.105357 8.98043 0 9.23478 0 9.5V12C0 12.2652 0.105357 12.5196 0.292893 12.7071C0.48043 12.8946 0.734784 13 1 13H3.5C3.76522 13 4.01957 12.8946 4.20711 12.7071C4.39464 12.5196 4.5 12.2652 4.5 12V9.5C4.5 9.23478 4.39464 8.98043 4.20711 8.79289C4.01957 8.60536 3.76522 8.5 3.5 8.5H1ZM10 3V1.5H11.5V3H10ZM8.5 1C8.5 0.734784 8.60536 0.48043 8.79289 0.292893C8.98043 0.105357 9.23478 0 9.5 0H12C12.2652 0 12.5196 0.105357 12.7071 0.292893C12.8946 0.48043 13 0.734784 13 1V3.5C13 3.76522 12.8946 4.01957 12.7071 4.20711C12.5196 4.39464 12.2652 4.5 12 4.5H9.5C9.23478 4.5 8.98043 4.39464 8.79289 4.20711C8.60536 4.01957 8.5 3.76522 8.5 3.5V1Z" fill="#FF8126"/>
</svg>
