<svg width="25" height="24" viewBox="0 0 25 24" fill="none" xmlns="http://www.w3.org/2000/svg">
<path d="M21.5857 21.5137C21.1713 22.3079 19.3065 22.7223 18.4432 22.7223L15.3008 22.8259V24L12.0547 19.787L15.2662 15.5396V17.2662H20.8605C22.3109 17.2662 23.3469 17.128 24.4174 16.1611L21.5857 21.4791V21.5137Z" fill="#00ACAD"/>
<path d="M3.24901 20.8229L0.141066 15.4704C-0.273326 14.7452 0.313729 12.9495 0.762654 12.1552L2.28209 9.49623L1.28064 8.84012L6.56414 8.2876L8.49797 13.2257L7.01307 12.3624L4.07779 17.1624C3.3526 18.3365 2.93821 19.3725 3.24901 20.7884V20.8229Z" fill="#00ACAD"/>
<path d="M20.9986 4.38562L18.823 9.18564C17.0619 8.94391 15.3698 8.66765 13.6086 8.32232L15.128 7.49355L12.4 2.45181C11.8129 1.34677 10.9496 0.345325 9.67188 0H15.8532C16.7165 0 17.9597 1.45036 18.4086 2.21008L19.9971 4.90361L21.0331 4.38562H20.9986Z" fill="#00ACAD"/>
<path d="M9.60277 7.1138C9.39557 7.45913 8.98118 7.52819 8.67039 7.35553L5.07899 5.11092C4.7682 4.93826 4.69913 4.52387 4.8718 4.21307L6.2531 1.93393C7.11642 0.93249 8.42866 0.207308 9.67184 0.93249C10.6388 1.31235 11.3294 2.62458 11.7438 3.55696L9.56824 7.1138H9.60277Z" fill="#00ACAD"/>
<path d="M23.4166 15.7122C23.0368 15.9539 22.6914 16.1266 22.2771 16.2302C21.5519 16.3683 20.8612 16.3683 20.1015 16.2992L17.995 12.7079C17.7878 12.3625 17.9259 11.9827 18.2367 11.81L21.8627 9.70354C22.1735 9.53088 22.5879 9.63447 22.7605 9.94527L24.1073 12.2244C24.5907 13.5021 24.6253 14.8834 23.3476 15.7467L23.4166 15.7122Z" fill="#00ACAD"/>
<path d="M9.43123 22.7224H6.80675C5.4945 22.4807 4.14773 21.6865 4.18226 20.2016C4.07866 19.1656 4.76932 17.957 5.39091 17.1282L9.53483 17.2318C9.91469 17.2318 10.1564 17.5426 10.1909 17.8879L10.1219 22.0663C10.1219 22.4116 9.88015 22.757 9.46576 22.7224H9.43123Z" fill="#00ACAD"/>
</svg>
