<svg width="25" height="24" viewBox="0 0 25 24" fill="none" xmlns="http://www.w3.org/2000/svg">
<path d="M24.0418 7.17032V8.2973C24.0418 11.7346 21.2932 14.5708 17.906 15.2971C17.3863 14.4957 16.5223 14.0637 15.5894 14.0637H13.0975C12.9347 14.0637 12.8033 14.0136 12.6843 13.9134C11.9893 13.3186 11.1942 12.8803 10.3176 12.6362C7.75062 9.55576 8.00732 5.01654 10.8749 2.21788C13.7424 -0.580775 13.9052 0.15176 15.7334 0.0202794C19.9095 -0.280248 23.5659 2.7939 24.0042 6.95119C24.0105 7.03258 23.9666 7.12024 24.0418 7.17032ZM16.9981 11.9537C17.0044 11.6657 16.9856 11.409 17.0107 11.121C17.9936 10.7516 18.5634 9.75611 18.3693 8.74183C18.1815 7.75886 17.33 7.03258 16.2969 7.02632C15.8649 7.02632 15.5581 6.65692 15.5957 6.25622C15.6332 5.85552 16.0089 5.56125 16.4284 5.63638C16.8479 5.71151 16.8729 5.82421 17.0545 5.987C17.355 6.25622 17.7995 6.24996 18.0625 5.96195C18.3255 5.67395 18.3192 5.24194 18.0312 4.96646C17.7432 4.69097 17.3926 4.49688 17.0044 4.35914V3.55774C17.0044 3.12573 16.6851 2.80016 16.2719 2.81268C15.8586 2.8252 15.5769 3.14451 15.5894 3.55774C15.5894 3.82696 15.6019 4.0774 15.5894 4.34662C14.5939 4.69723 14.0367 5.71151 14.2308 6.71953C14.4249 7.72755 15.2701 8.42878 16.3032 8.43504C17.3362 8.4413 17.0795 8.86079 16.9856 9.28654C16.898 9.6935 16.4722 9.93768 16.0527 9.79368C15.6332 9.64967 15.5957 9.5495 15.4266 9.34915C15.1574 9.01731 14.7003 8.96097 14.3936 9.23019C14.0868 9.49941 14.0742 9.96272 14.3623 10.2758C14.6503 10.5888 15.0885 10.952 15.5831 11.1147L15.6019 12.0414C15.6082 12.4296 15.9964 12.68 16.3658 12.6487C16.7101 12.6174 16.9919 12.3294 17.0044 11.9537H16.9981Z" fill="#00ACAD"/>
<path d="M24.0428 16.0237V16.5371C23.9051 16.9315 23.9301 17.1068 23.6171 17.5263L20.2424 22.0217C19.3846 23.1612 18.1387 23.7998 16.7675 23.9876H9.16041C8.00838 23.9876 6.8501 23.6621 5.68555 23.4179V14.7652C7.53255 13.5005 9.99938 13.5944 11.6961 15.0407C12.0593 15.3475 12.4725 15.5478 12.9608 15.5478H15.5905C16.3794 15.5478 16.9804 16.1802 16.9929 16.9378C17.0055 17.6953 16.3919 18.3653 15.5905 18.3653H11.2704C10.8571 18.3653 10.5566 18.6658 10.5441 19.0477C10.5316 19.4296 10.8384 19.774 11.2704 19.774H16.8051C17.4124 19.7677 17.9509 19.4985 18.3453 19.054L21.5697 15.3412C21.9454 14.9092 22.5152 14.7464 23.0786 14.928C23.6421 15.1095 23.9051 15.5103 24.0366 16.0237H24.0428Z" fill="#00ACAD"/>
<path d="M2.4418 23.9937H0.525925C0.281746 23.881 0.118959 23.712 0 23.4803V14.6711C0.144003 14.4144 0.319312 14.164 0.657407 14.164H2.16631C3.33086 14.1577 4.27627 15.0906 4.27627 16.2677V21.89C4.27627 22.992 3.48112 23.7996 2.44806 24L2.4418 23.9937Z" fill="#00ACAD"/>
</svg>
